<mxfile host="app.diagrams.net" modified="2021-06-12T12:21:45.093Z" agent="5.0 (Macintosh; Intel Mac OS X 10_15_7) AppleWebKit/537.36 (KHTML, like Gecko) Chrome/91.0.4472.77 Safari/537.36" etag="Wkm_u5sLyDfjORFxY4cW" version="14.7.7" type="github">
  <diagram id="zhA9Z2e0_oTZCTcCiTvl" name="第 1 页">
    <mxGraphModel dx="314" dy="168" grid="1" gridSize="10" guides="1" tooltips="1" connect="1" arrows="1" fold="1" page="1" pageScale="1" pageWidth="827" pageHeight="1169" math="0" shadow="0">
      <root>
        <mxCell id="0" />
        <mxCell id="1" parent="0" />
        <mxCell id="Lb9J0BRFZS5pveE2E4zv-1" value="" style="shape=image;verticalLabelPosition=bottom;labelBackgroundColor=#ffffff;verticalAlign=top;aspect=fixed;imageAspect=0;image=data:image/svg+xml,PHN2ZyB4bWxucz0iaHR0cDovL3d3dy53My5vcmcvMjAwMC9zdmciIHhtbG5zOnhsaW5rPSJodHRwOi8vd3d3LnczLm9yZy8xOTk5L3hsaW5rIiB4bWxuczpzdmdqcz0iaHR0cDovL3N2Z2pzLmNvbS9zdmdqcyIgaWQ9IlN2Z2pzU3ZnMTAwNiIgd2lkdGg9IjE1OTkiIGhlaWdodD0iMTM3OCIgdmVyc2lvbj0iMS4xIiB2aWV3Qm94PSIyNSAyNSAxNTk5IDEzNzgiPjxkZWZzIGlkPSJTdmdqc0RlZnMxMDA3Ij48bWFya2VyIGlkPSJTdmdqc01hcmtlcjEwMjQiIG1hcmtlcldpZHRoPSIxNiIgbWFya2VySGVpZ2h0PSIxMiIgcmVmWD0iMTYiIHJlZlk9IjYiIHZpZXdCb3g9IjAgMCAxNiAxMiIgb3JpZW50PSJhdXRvIiBtYXJrZXJVbml0cz0idXNlclNwYWNlT25Vc2UiIHN0cm9rZS1kYXNoYXJyYXk9IjAsMCI+PHBhdGggaWQ9IlN2Z2pzUGF0aDEwMjUiIGQ9Ik0wLDIgTDE0LDYgTDAsMTEgTDAsMiIgZmlsbD0iIzMyMzIzMiIgc3Ryb2tlPSIjMzIzMjMyIiBzdHJva2Utd2lkdGg9IjIiLz48L21hcmtlcj48bWFya2VyIGlkPSJTdmdqc01hcmtlcjEwNDAiIG1hcmtlcldpZHRoPSIxNiIgbWFya2VySGVpZ2h0PSIxMiIgcmVmWD0iMTYiIHJlZlk9IjYiIHZpZXdCb3g9IjAgMCAxNiAxMiIgb3JpZW50PSJhdXRvIiBtYXJrZXJVbml0cz0idXNlclNwYWNlT25Vc2UiIHN0cm9rZS1kYXNoYXJyYXk9IjAsMCI+PHBhdGggaWQ9IlN2Z2pzUGF0aDEwNDEiIGQ9Ik0wLDIgTDE0LDYgTDAsMTEgTDAsMiIgZmlsbD0iIzMyMzIzMiIgc3Ryb2tlPSIjMzIzMjMyIiBzdHJva2Utd2lkdGg9IjIiLz48L21hcmtlcj48bWFya2VyIGlkPSJTdmdqc01hcmtlcjEwNzgiIG1hcmtlcldpZHRoPSIxNiIgbWFya2VySGVpZ2h0PSIxMiIgcmVmWD0iMTYiIHJlZlk9IjYiIHZpZXdCb3g9IjAgMCAxNiAxMiIgb3JpZW50PSJhdXRvIiBtYXJrZXJVbml0cz0idXNlclNwYWNlT25Vc2UiIHN0cm9rZS1kYXNoYXJyYXk9IjAsMCI+PHBhdGggaWQ9IlN2Z2pzUGF0aDEwNzkiIGQ9Ik0wLDIgTDE0LDYgTDAsMTEgTDAsMiIgZmlsbD0iIzMyMzIzMiIgc3Ryb2tlPSIjMzIzMjMyIiBzdHJva2Utd2lkdGg9IjIiLz48L21hcmtlcj48bWFya2VyIGlkPSJTdmdqc01hcmtlcjEwODIiIG1hcmtlcldpZHRoPSIxNiIgbWFya2VySGVpZ2h0PSIxMiIgcmVmWD0iMTYiIHJlZlk9IjYiIHZpZXdCb3g9IjAgMCAxNiAxMiIgb3JpZW50PSJhdXRvIiBtYXJrZXJVbml0cz0idXNlclNwYWNlT25Vc2UiIHN0cm9rZS1kYXNoYXJyYXk9IjAsMCI+PHBhdGggaWQ9IlN2Z2pzUGF0aDEwODMiIGQ9Ik0wLDIgTDE0LDYgTDAsMTEgTDAsMiIgZmlsbD0iIzMyMzIzMiIgc3Ryb2tlPSIjMzIzMjMyIiBzdHJva2Utd2lkdGg9IjIiLz48L21hcmtlcj48bWFya2VyIGlkPSJTdmdqc01hcmtlcjEwOTgiIG1hcmtlcldpZHRoPSIxNiIgbWFya2VySGVpZ2h0PSIxMiIgcmVmWD0iMTYiIHJlZlk9IjYiIHZpZXdCb3g9IjAgMCAxNiAxMiIgb3JpZW50PSJhdXRvIiBtYXJrZXJVbml0cz0idXNlclNwYWNlT25Vc2UiIHN0cm9rZS1kYXNoYXJyYXk9IjAsMCI+PHBhdGggaWQ9IlN2Z2pzUGF0aDEwOTkiIGQ9Ik0wLDIgTDE0LDYgTDAsMTEgTDAsMiIgZmlsbD0iIzMyMzIzMiIgc3Ryb2tlPSIjMzIzMjMyIiBzdHJva2Utd2lkdGg9IjIiLz48L21hcmtlcj48bWFya2VyIGlkPSJTdmdqc01hcmtlcjExMDIiIG1hcmtlcldpZHRoPSIxNiIgbWFya2VySGVpZ2h0PSIxMiIgcmVmWD0iMTYiIHJlZlk9IjYiIHZpZXdCb3g9IjAgMCAxNiAxMiIgb3JpZW50PSJhdXRvIiBtYXJrZXJVbml0cz0idXNlclNwYWNlT25Vc2UiIHN0cm9rZS1kYXNoYXJyYXk9IjAsMCI+PHBhdGggaWQ9IlN2Z2pzUGF0aDExMDMiIGQ9Ik0wLDIgTDE0LDYgTDAsMTEgTDAsMiIgZmlsbD0iIzMyMzIzMiIgc3Ryb2tlPSIjMzIzMjMyIiBzdHJva2Utd2lkdGg9IjIiLz48L21hcmtlcj48bWFya2VyIGlkPSJTdmdqc01hcmtlcjExMTAiIG1hcmtlcldpZHRoPSIxNiIgbWFya2VySGVpZ2h0PSIxMiIgcmVmWD0iMTYiIHJlZlk9IjYiIHZpZXdCb3g9IjAgMCAxNiAxMiIgb3JpZW50PSJhdXRvIiBtYXJrZXJVbml0cz0idXNlclNwYWNlT25Vc2UiIHN0cm9rZS1kYXNoYXJyYXk9IjAsMCI+PHBhdGggaWQ9IlN2Z2pzUGF0aDExMTEiIGQ9Ik0wLDIgTDE0LDYgTDAsMTEgTDAsMiIgZmlsbD0iIzMyMzIzMiIgc3Ryb2tlPSIjMzIzMjMyIiBzdHJva2Utd2lkdGg9IjIiLz48L21hcmtlcj48bWFya2VyIGlkPSJTdmdqc01hcmtlcjExMjQiIG1hcmtlcldpZHRoPSIxNiIgbWFya2VySGVpZ2h0PSIxMiIgcmVmWD0iMTYiIHJlZlk9IjYiIHZpZXdCb3g9IjAgMCAxNiAxMiIgb3JpZW50PSJhdXRvIiBtYXJrZXJVbml0cz0idXNlclNwYWNlT25Vc2UiIHN0cm9rZS1kYXNoYXJyYXk9IjAsMCI+PHBhdGggaWQ9IlN2Z2pzUGF0aDExMjUiIGQ9Ik0wLDIgTDE0LDYgTDAsMTEgTDAsMiIgZmlsbD0iIzMyMzIzMiIgc3Ryb2tlPSIjMzIzMjMyIiBzdHJva2Utd2lkdGg9IjIiLz48L21hcmtlcj48bWFya2VyIGlkPSJTdmdqc01hcmtlcjExNDIiIG1hcmtlcldpZHRoPSIxNiIgbWFya2VySGVpZ2h0PSIxMiIgcmVmWD0iMTYiIHJlZlk9IjYiIHZpZXdCb3g9IjAgMCAxNiAxMiIgb3JpZW50PSJhdXRvIiBtYXJrZXJVbml0cz0idXNlclNwYWNlT25Vc2UiIHN0cm9rZS1kYXNoYXJyYXk9IjAsMCI+PHBhdGggaWQ9IlN2Z2pzUGF0aDExNDMiIGQ9Ik0wLDIgTDE0LDYgTDAsMTEgTDAsMiIgZmlsbD0iIzMyMzIzMiIgc3Ryb2tlPSIjMzIzMjMyIiBzdHJva2Utd2lkdGg9IjIiLz48L21hcmtlcj48bWFya2VyIGlkPSJTdmdqc01hcmtlcjExNTgiIG1hcmtlcldpZHRoPSIxNiIgbWFya2VySGVpZ2h0PSIxMiIgcmVmWD0iMTYiIHJlZlk9IjYiIHZpZXdCb3g9IjAgMCAxNiAxMiIgb3JpZW50PSJhdXRvIiBtYXJrZXJVbml0cz0idXNlclNwYWNlT25Vc2UiIHN0cm9rZS1kYXNoYXJyYXk9IjAsMCI+PHBhdGggaWQ9IlN2Z2pzUGF0aDExNTkiIGQ9Ik0wLDIgTDE0LDYgTDAsMTEgTDAsMiIgZmlsbD0iIzMyMzIzMiIgc3Ryb2tlPSIjMzIzMjMyIiBzdHJva2Utd2lkdGg9IjIiLz48L21hcmtlcj48bWFya2VyIGlkPSJTdmdqc01hcmtlcjExNzIiIG1hcmtlcldpZHRoPSIxNiIgbWFya2VySGVpZ2h0PSIxMiIgcmVmWD0iMTYiIHJlZlk9IjYiIHZpZXdCb3g9IjAgMCAxNiAxMiIgb3JpZW50PSJhdXRvIiBtYXJrZXJVbml0cz0idXNlclNwYWNlT25Vc2UiIHN0cm9rZS1kYXNoYXJyYXk9IjAsMCI+PHBhdGggaWQ9IlN2Z2pzUGF0aDExNzMiIGQ9Ik0wLDIgTDE0LDYgTDAsMTEgTDAsMiIgZmlsbD0iIzMyMzIzMiIgc3Ryb2tlPSIjMzIzMjMyIiBzdHJva2Utd2lkdGg9IjIiLz48L21hcmtlcj48bWFya2VyIGlkPSJTdmdqc01hcmtlcjExODAiIG1hcmtlcldpZHRoPSIxNiIgbWFya2VySGVpZ2h0PSIxMiIgcmVmWD0iMTYiIHJlZlk9IjYiIHZpZXdCb3g9IjAgMCAxNiAxMiIgb3JpZW50PSJhdXRvIiBtYXJrZXJVbml0cz0idXNlclNwYWNlT25Vc2UiIHN0cm9rZS1kYXNoYXJyYXk9IjAsMCI+PHBhdGggaWQ9IlN2Z2pzUGF0aDExODEiIGQ9Ik0wLDIgTDE0LDYgTDAsMTEgTDAsMiIgZmlsbD0iIzMyMzIzMiIgc3Ryb2tlPSIjMzIzMjMyIiBzdHJva2Utd2lkdGg9IjIiLz48L21hcmtlcj48bWFya2VyIGlkPSJTdmdqc01hcmtlcjEyMDYiIG1hcmtlcldpZHRoPSIxNiIgbWFya2VySGVpZ2h0PSIxMiIgcmVmWD0iMTYiIHJlZlk9IjYiIHZpZXdCb3g9IjAgMCAxNiAxMiIgb3JpZW50PSJhdXRvIiBtYXJrZXJVbml0cz0idXNlclNwYWNlT25Vc2UiIHN0cm9rZS1kYXNoYXJyYXk9IjAsMCI+PHBhdGggaWQ9IlN2Z2pzUGF0aDEyMDciIGQ9Ik0wLDIgTDE0LDYgTDAsMTEgTDAsMiIgZmlsbD0iIzMyMzIzMiIgc3Ryb2tlPSIjMzIzMjMyIiBzdHJva2Utd2lkdGg9IjIiLz48L21hcmtlcj48bWFya2VyIGlkPSJTdmdqc01hcmtlcjEyMjYiIG1hcmtlcldpZHRoPSIxNiIgbWFya2VySGVpZ2h0PSIxMiIgcmVmWD0iMTYiIHJlZlk9IjYiIHZpZXdCb3g9IjAgMCAxNiAxMiIgb3JpZW50PSJhdXRvIiBtYXJrZXJVbml0cz0idXNlclNwYWNlT25Vc2UiIHN0cm9rZS1kYXNoYXJyYXk9IjAsMCI+PHBhdGggaWQ9IlN2Z2pzUGF0aDEyMjciIGQ9Ik0wLDIgTDE0LDYgTDAsMTEgTDAsMiIgZmlsbD0iIzMyMzIzMiIgc3Ryb2tlPSIjMzIzMjMyIiBzdHJva2Utd2lkdGg9IjIiLz48L21hcmtlcj48bWFya2VyIGlkPSJTdmdqc01hcmtlcjEyMzQiIG1hcmtlcldpZHRoPSIxNiIgbWFya2VySGVpZ2h0PSIxMiIgcmVmWD0iMTYiIHJlZlk9IjYiIHZpZXdCb3g9IjAgMCAxNiAxMiIgb3JpZW50PSJhdXRvIiBtYXJrZXJVbml0cz0idXNlclNwYWNlT25Vc2UiIHN0cm9rZS1kYXNoYXJyYXk9IjAsMCI+PHBhdGggaWQ9IlN2Z2pzUGF0aDEyMzUiIGQ9Ik0wLDIgTDE0LDYgTDAsMTEgTDAsMiIgZmlsbD0iIzMyMzIzMiIgc3Ryb2tlPSIjMzIzMjMyIiBzdHJva2Utd2lkdGg9IjIiLz48L21hcmtlcj48bWFya2VyIGlkPSJTdmdqc01hcmtlcjEyNzQiIG1hcmtlcldpZHRoPSIxNiIgbWFya2VySGVpZ2h0PSIxMiIgcmVmWD0iMTYiIHJlZlk9IjYiIHZpZXdCb3g9IjAgMCAxNiAxMiIgb3JpZW50PSJhdXRvIiBtYXJrZXJVbml0cz0idXNlclNwYWNlT25Vc2UiIHN0cm9rZS1kYXNoYXJyYXk9IjAsMCI+PHBhdGggaWQ9IlN2Z2pzUGF0aDEyNzUiIGQ9Ik0wLDIgTDE0LDYgTDAsMTEgTDAsMiIgZmlsbD0iIzMyMzIzMiIgc3Ryb2tlPSIjMzIzMjMyIiBzdHJva2Utd2lkdGg9IjIiLz48L21hcmtlcj48bWFya2VyIGlkPSJTdmdqc01hcmtlcjEyODIiIG1hcmtlcldpZHRoPSIxNiIgbWFya2VySGVpZ2h0PSIxMiIgcmVmWD0iMTYiIHJlZlk9IjYiIHZpZXdCb3g9IjAgMCAxNiAxMiIgb3JpZW50PSJhdXRvIiBtYXJrZXJVbml0cz0idXNlclNwYWNlT25Vc2UiIHN0cm9rZS1kYXNoYXJyYXk9IjAsMCI+PHBhdGggaWQ9IlN2Z2pzUGF0aDEyODMiIGQ9Ik0wLDIgTDE0LDYgTDAsMTEgTDAsMiIgZmlsbD0iIzMyMzIzMiIgc3Ryb2tlPSIjMzIzMjMyIiBzdHJva2Utd2lkdGg9IjIiLz48L21hcmtlcj48bWFya2VyIGlkPSJTdmdqc01hcmtlcjEyOTIiIG1hcmtlcldpZHRoPSIxNiIgbWFya2VySGVpZ2h0PSIxMiIgcmVmWD0iMTYiIHJlZlk9IjYiIHZpZXdCb3g9IjAgMCAxNiAxMiIgb3JpZW50PSJhdXRvIiBtYXJrZXJVbml0cz0idXNlclNwYWNlT25Vc2UiIHN0cm9rZS1kYXNoYXJyYXk9IjAsMCI+PHBhdGggaWQ9IlN2Z2pzUGF0aDEyOTMiIGQ9Ik0wLDIgTDE0LDYgTDAsMTEgTDAsMiIgZmlsbD0iIzMyMzIzMiIgc3Ryb2tlPSIjMzIzMjMyIiBzdHJva2Utd2lkdGg9IjIiLz48L21hcmtlcj48bWFya2VyIGlkPSJTdmdqc01hcmtlcjEzMDIiIG1hcmtlcldpZHRoPSIxNiIgbWFya2VySGVpZ2h0PSIxMiIgcmVmWD0iMTYiIHJlZlk9IjYiIHZpZXdCb3g9IjAgMCAxNiAxMiIgb3JpZW50PSJhdXRvIiBtYXJrZXJVbml0cz0idXNlclNwYWNlT25Vc2UiIHN0cm9rZS1kYXNoYXJyYXk9IjAsMCI+PHBhdGggaWQ9IlN2Z2pzUGF0aDEzMDMiIGQ9Ik0wLDIgTDE0LDYgTDAsMTEgTDAsMiIgZmlsbD0iIzMyMzIzMiIgc3Ryb2tlPSIjMzIzMjMyIiBzdHJva2Utd2lkdGg9IjIiLz48L21hcmtlcj48bWFya2VyIGlkPSJTdmdqc01hcmtlcjEzMjAiIG1hcmtlcldpZHRoPSIxNiIgbWFya2VySGVpZ2h0PSIxMiIgcmVmWD0iMTYiIHJlZlk9IjYiIHZpZXdCb3g9IjAgMCAxNiAxMiIgb3JpZW50PSJhdXRvIiBtYXJrZXJVbml0cz0idXNlclNwYWNlT25Vc2UiIHN0cm9rZS1kYXNoYXJyYXk9IjAsMCI+PHBhdGggaWQ9IlN2Z2pzUGF0aDEzMjEiIGQ9Ik0wLDIgTDE0LDYgTDAsMTEgTDAsMiIgZmlsbD0iIzMyMzIzMiIgc3Ryb2tlPSIjMzIzMjMyIiBzdHJva2Utd2lkdGg9IjIiLz48L21hcmtlcj48bWFya2VyIGlkPSJTdmdqc01hcmtlcjEzMzAiIG1hcmtlcldpZHRoPSIxNiIgbWFya2VySGVpZ2h0PSIxMiIgcmVmWD0iMTYiIHJlZlk9IjYiIHZpZXdCb3g9IjAgMCAxNiAxMiIgb3JpZW50PSJhdXRvIiBtYXJrZXJVbml0cz0idXNlclNwYWNlT25Vc2UiIHN0cm9rZS1kYXNoYXJyYXk9IjAsMCI+PHBhdGggaWQ9IlN2Z2pzUGF0aDEzMzEiIGQ9Ik0wLDIgTDE0LDYgTDAsMTEgTDAsMiIgZmlsbD0iIzMyMzIzMiIgc3Ryb2tlPSIjMzIzMjMyIiBzdHJva2Utd2lkdGg9IjIiLz48L21hcmtlcj48bWFya2VyIGlkPSJTdmdqc01hcmtlcjEzNDQiIG1hcmtlcldpZHRoPSIxNiIgbWFya2VySGVpZ2h0PSIxMiIgcmVmWD0iMTYiIHJlZlk9IjYiIHZpZXdCb3g9IjAgMCAxNiAxMiIgb3JpZW50PSJhdXRvIiBtYXJrZXJVbml0cz0idXNlclNwYWNlT25Vc2UiIHN0cm9rZS1kYXNoYXJyYXk9IjAsMCI+PHBhdGggaWQ9IlN2Z2pzUGF0aDEzNDUiIGQ9Ik0wLDIgTDE0LDYgTDAsMTEgTDAsMiIgZmlsbD0iIzMyMzIzMiIgc3Ryb2tlPSIjMzIzMjMyIiBzdHJva2Utd2lkdGg9IjIiLz48L21hcmtlcj48bWFya2VyIGlkPSJTdmdqc01hcmtlcjEzNTIiIG1hcmtlcldpZHRoPSIxNiIgbWFya2VySGVpZ2h0PSIxMiIgcmVmWD0iMTYiIHJlZlk9IjYiIHZpZXdCb3g9IjAgMCAxNiAxMiIgb3JpZW50PSJhdXRvIiBtYXJrZXJVbml0cz0idXNlclNwYWNlT25Vc2UiIHN0cm9rZS1kYXNoYXJyYXk9IjAsMCI+PHBhdGggaWQ9IlN2Z2pzUGF0aDEzNTMiIGQ9Ik0wLDIgTDE0LDYgTDAsMTEgTDAsMiIgZmlsbD0iIzMyMzIzMiIgc3Ryb2tlPSIjMzIzMjMyIiBzdHJva2Utd2lkdGg9IjIiLz48L21hcmtlcj48bWFya2VyIGlkPSJTdmdqc01hcmtlcjEzNzQiIG1hcmtlcldpZHRoPSIxNiIgbWFya2VySGVpZ2h0PSIxMiIgcmVmWD0iMTYiIHJlZlk9IjYiIHZpZXdCb3g9IjAgMCAxNiAxMiIgb3JpZW50PSJhdXRvIiBtYXJrZXJVbml0cz0idXNlclNwYWNlT25Vc2UiIHN0cm9rZS1kYXNoYXJyYXk9IjAsMCI+PHBhdGggaWQ9IlN2Z2pzUGF0aDEzNzUiIGQ9Ik0wLDIgTDE0LDYgTDAsMTEgTDAsMiIgZmlsbD0iIzMyMzIzMiIgc3Ryb2tlPSIjMzIzMjMyIiBzdHJva2Utd2lkdGg9IjIiLz48L21hcmtlcj48bWFya2VyIGlkPSJTdmdqc01hcmtlcjEzODYiIG1hcmtlcldpZHRoPSIxNiIgbWFya2VySGVpZ2h0PSIxMiIgcmVmWD0iMTYiIHJlZlk9IjYiIHZpZXdCb3g9IjAgMCAxNiAxMiIgb3JpZW50PSJhdXRvIiBtYXJrZXJVbml0cz0idXNlclNwYWNlT25Vc2UiIHN0cm9rZS1kYXNoYXJyYXk9IjAsMCI+PHBhdGggaWQ9IlN2Z2pzUGF0aDEzODciIGQ9Ik0wLDIgTDE0LDYgTDAsMTEgTDAsMiIgZmlsbD0iIzMyMzIzMiIgc3Ryb2tlPSIjMzIzMjMyIiBzdHJva2Utd2lkdGg9IjIiLz48L21hcmtlcj48bWFya2VyIGlkPSJTdmdqc01hcmtlcjE0MDQiIG1hcmtlcldpZHRoPSIxNiIgbWFya2VySGVpZ2h0PSIxMiIgcmVmWD0iMTYiIHJlZlk9IjYiIHZpZXdCb3g9IjAgMCAxNiAxMiIgb3JpZW50PSJhdXRvIiBtYXJrZXJVbml0cz0idXNlclNwYWNlT25Vc2UiIHN0cm9rZS1kYXNoYXJyYXk9IjAsMCI+PHBhdGggaWQ9IlN2Z2pzUGF0aDE0MDUiIGQ9Ik0wLDIgTDE0LDYgTDAsMTEgTDAsMiIgZmlsbD0iIzMyMzIzMiIgc3Ryb2tlPSIjMzIzMjMyIiBzdHJva2Utd2lkdGg9IjIiLz48L21hcmtlcj48bWFya2VyIGlkPSJTdmdqc01hcmtlcjE0MjAiIG1hcmtlcldpZHRoPSIxNiIgbWFya2VySGVpZ2h0PSIxMiIgcmVmWD0iMTYiIHJlZlk9IjYiIHZpZXdCb3g9IjAgMCAxNiAxMiIgb3JpZW50PSJhdXRvIiBtYXJrZXJVbml0cz0idXNlclNwYWNlT25Vc2UiIHN0cm9rZS1kYXNoYXJyYXk9IjAsMCI+PHBhdGggaWQ9IlN2Z2pzUGF0aDE0MjEiIGQ9Ik0wLDIgTDE0LDYgTDAsMTEgTDAsMiIgZmlsbD0iIzMyMzIzMiIgc3Ryb2tlPSIjMzIzMjMyIiBzdHJva2Utd2lkdGg9IjIiLz48L21hcmtlcj48bWFya2VyIGlkPSJTdmdqc01hcmtlcjE0MjQiIG1hcmtlcldpZHRoPSIxNiIgbWFya2VySGVpZ2h0PSIxMiIgcmVmWD0iMTYiIHJlZlk9IjYiIHZpZXdCb3g9IjAgMCAxNiAxMiIgb3JpZW50PSJhdXRvIiBtYXJrZXJVbml0cz0idXNlclNwYWNlT25Vc2UiIHN0cm9rZS1kYXNoYXJyYXk9IjAsMCI+PHBhdGggaWQ9IlN2Z2pzUGF0aDE0MjUiIGQ9Ik0wLDIgTDE0LDYgTDAsMTEgTDAsMiIgZmlsbD0iIzMyMzIzMiIgc3Ryb2tlPSIjMzIzMjMyIiBzdHJva2Utd2lkdGg9IjIiLz48L21hcmtlcj48bWFya2VyIGlkPSJTdmdqc01hcmtlcjE0NjAiIG1hcmtlcldpZHRoPSIxNiIgbWFya2VySGVpZ2h0PSIxMiIgcmVmWD0iMTYiIHJlZlk9IjYiIHZpZXdCb3g9IjAgMCAxNiAxMiIgb3JpZW50PSJhdXRvIiBtYXJrZXJVbml0cz0idXNlclNwYWNlT25Vc2UiIHN0cm9rZS1kYXNoYXJyYXk9IjAsMCI+PHBhdGggaWQ9IlN2Z2pzUGF0aDE0NjEiIGQ9Ik0wLDIgTDE0LDYgTDAsMTEgTDAsMiIgZmlsbD0iIzMyMzIzMiIgc3Ryb2tlPSIjMzIzMjMyIiBzdHJva2Utd2lkdGg9IjIiLz48L21hcmtlcj48bWFya2VyIGlkPSJTdmdqc01hcmtlcjE0NzQiIG1hcmtlcldpZHRoPSIxNiIgbWFya2VySGVpZ2h0PSIxMiIgcmVmWD0iMTYiIHJlZlk9IjYiIHZpZXdCb3g9IjAgMCAxNiAxMiIgb3JpZW50PSJhdXRvIiBtYXJrZXJVbml0cz0idXNlclNwYWNlT25Vc2UiIHN0cm9rZS1kYXNoYXJyYXk9IjAsMCI+PHBhdGggaWQ9IlN2Z2pzUGF0aDE0NzUiIGQ9Ik0wLDIgTDE0LDYgTDAsMTEgTDAsMiIgZmlsbD0iIzMyMzIzMiIgc3Ryb2tlPSIjMzIzMjMyIiBzdHJva2Utd2lkdGg9IjIiLz48L21hcmtlcj48bWFya2VyIGlkPSJTdmdqc01hcmtlcjE0ODgiIG1hcmtlcldpZHRoPSIxNiIgbWFya2VySGVpZ2h0PSIxMiIgcmVmWD0iMTYiIHJlZlk9IjYiIHZpZXdCb3g9IjAgMCAxNiAxMiIgb3JpZW50PSJhdXRvIiBtYXJrZXJVbml0cz0idXNlclNwYWNlT25Vc2UiIHN0cm9rZS1kYXNoYXJyYXk9IjAsMCI+PHBhdGggaWQ9IlN2Z2pzUGF0aDE0ODkiIGQ9Ik0wLDIgTDE0LDYgTDAsMTEgTDAsMiIgZmlsbD0iIzMyMzIzMiIgc3Ryb2tlPSIjMzIzMjMyIiBzdHJva2Utd2lkdGg9IjIiLz48L21hcmtlcj48L2RlZnM+PGcgaWQ9IlN2Z2pzRzEwMDgiIHRyYW5zZm9ybT0idHJhbnNsYXRlKDMyLDI1KSI+PHBhdGggaWQ9IlN2Z2pzUGF0aDEwMDkiIGQ9Ik0gMCA0USAwIDAgNCAwTCAxMDU2IDBRIDEwNjAgMCAxMDYwIDRMIDEwNjAgMzQyUSAxMDYwIDM0NiAxMDU2IDM0NkwgNCAzNDZRIDAgMzQ2IDAgMzQyWiIgc3Ryb2tlPSJyZ2JhKDUwLDUwLDUwLDEpIiBzdHJva2Utd2lkdGg9IjIiIGZpbGwtb3BhY2l0eT0iMSIgZmlsbD0iI2ZmZmZmZiIvPjxnIGlkPSJTdmdqc0cxMDEwIj48dGV4dCBpZD0iU3ZnanNUZXh0MTAxMSIgZm9udC1mYW1pbHk9IuW+rui9r+mbhem7kSIgdGV4dC1hbmNob3I9Im1pZGRsZSIgZm9udC1zaXplPSIyMXB4IiB3aWR0aD0iMTA1MHB4IiBmaWxsPSIjZmY4MDAwIiBmb250LXdlaWdodD0iNzAwIiBhbGlnbj0ibWlkZGxlIiBsaW5laGVpZ2h0PSIxMjUlIiBhbmNob3I9Im1pZGRsZSIgZmFtaWx5PSLlvq7ova/pm4Xpu5EiIHNpemU9IjIxcHgiIHdlaWdodD0iNzAwIiBmb250LXN0eWxlPSIiIG9wYWNpdHk9IjEiIHk9IjguMDg5Mjg1NzE0Mjg1NzEyIiB0cmFuc2Zvcm09InJvdGF0ZSgwKSI+PHRzcGFuIGlkPSJTdmdqc1RzcGFuMTAxMiIgZHk9IjI2IiB4PSI1MzAiPjx0c3BhbiBpZD0iU3ZnanNUc3BhbjEwMTMiIHN0eWxlPSJ0ZXh0LWRlY29yYXRpb246OyI+QWNjZXB0b3I8L3RzcGFuPjwvdHNwYW4+PC90ZXh0PjwvZz48L2c+PGcgaWQ9IlN2Z2pzRzEwMTQiIHRyYW5zZm9ybT0idHJhbnNsYXRlKDQ4NiwxNzMpIj48cGF0aCBpZD0iU3ZnanNQYXRoMTAxNSIgZD0iTSAwIDM1TCA0NSAwTCA5MCAzNUwgNDUgNzBMIDAgMzVaIiBzdHJva2U9InJnYmEoNTAsNTAsNTAsMSkiIHN0cm9rZS13aWR0aD0iMiIgZmlsbC1vcGFjaXR5PSIxIiBmaWxsPSIjZmZmZmZmIi8+PGcgaWQ9IlN2Z2pzRzEwMTYiPjx0ZXh0IGlkPSJTdmdqc1RleHQxMDE3IiBmb250LWZhbWlseT0i5b6u6L2v6ZuF6buRIiB0ZXh0LWFuY2hvcj0ibWlkZGxlIiBmb250LXNpemU9IjEzcHgiIHdpZHRoPSI3MHB4IiBmaWxsPSIjMzIzMjMyIiBmb250LXdlaWdodD0iNDAwIiBhbGlnbj0ibWlkZGxlIiBsaW5laGVpZ2h0PSIxMjUlIiBhbmNob3I9Im1pZGRsZSIgZmFtaWx5PSLlvq7ova/pm4Xpu5EiIHNpemU9IjEzcHgiIHdlaWdodD0iNDAwIiBmb250LXN0eWxlPSIiIG9wYWNpdHk9IjEiIHk9IjE3LjM3NSIgdHJhbnNmb3JtPSJyb3RhdGUoMCkiPjx0c3BhbiBpZD0iU3ZnanNUc3BhbjEwMTgiIGR5PSIxNiIgeD0iNDUiPjx0c3BhbiBpZD0iU3ZnanNUc3BhbjEwMTkiIHN0eWxlPSJ0ZXh0LWRlY29yYXRpb246OyI+TGltaXRMYXRjaDwvdHNwYW4+PC90c3Bhbj48dHNwYW4gaWQ9IlN2Z2pzVHNwYW4xMDIwIiBkeT0iMTYiIHg9IjQ1Ij48dHNwYW4gaWQ9IlN2Z2pzVHNwYW4xMDIxIiBzdHlsZT0idGV4dC1kZWNvcmF0aW9uOjsiPuiOt+WPluaIkOWKn++8nzwvdHNwYW4+PC90c3Bhbj48L3RleHQ+PC9nPjwvZz48ZyBpZD0iU3ZnanNHMTAyMiI+PHBhdGggaWQ9IlN2Z2pzUGF0aDEwMjMiIGQ9Ik01MzEgMjQzTDUzMSAyNzNMNjMwIDI3M0w2MzAgMjA4TDY2MCAyMDgiIHN0cm9rZT0iIzMyMzIzMiIgc3Ryb2tlLXdpZHRoPSIyIiBmaWxsPSJub25lIiBtYXJrZXItZW5kPSJ1cmwoI1N2Z2pzTWFya2VyMTAyNCkiLz48cmVjdCBpZD0iU3ZnanNSZWN0MTAyNiIgd2lkdGg9IjExNyIgaGVpZ2h0PSIxNiIgeD0iNTU0LjUiIHk9IjI2NSIgZmlsbD0iI2ZmZmZmZiIvPjx0ZXh0IGlkPSJTdmdqc1RleHQxMDI3IiBmb250LWZhbWlseT0i5b6u6L2v6ZuF6buRIiB0ZXh0LWFuY2hvcj0ibWlkZGxlIiBmb250LXNpemU9IjEzcHgiIHdpZHRoPSIxMTdweCIgZmlsbD0iIzMyMzIzMiIgZm9udC13ZWlnaHQ9IjQwMCIgYWxpZ249InRvcCIgbGluZWhlaWdodD0iMTZweCIgYW5jaG9yPSJtaWRkbGUiIGZhbWlseT0i5b6u6L2v6ZuF6buRIiBzaXplPSIxM3B4IiB3ZWlnaHQ9IjQwMCIgZm9udC1zdHlsZT0iIiBvcGFjaXR5PSIxIiB5PSIyNjMuMzc1IiB0cmFuc2Zvcm09InJvdGF0ZSgwKSI+PHRzcGFuIGlkPSJTdmdqc1RzcGFuMTAyOCIgZHk9IjE2IiB4PSI2MTMiPjx0c3BhbiBpZD0iU3ZnanNUc3BhbjEwMjkiIHN0eWxlPSJ0ZXh0LWRlY29yYXRpb246OyI+5ZCm77yM6Zi75aGe77yM55u05Yiw5oiQ5YqfPC90c3Bhbj48L3RzcGFuPjwvdGV4dD48L2c+PGcgaWQ9IlN2Z2pzRzEwMzAiIHRyYW5zZm9ybT0idHJhbnNsYXRlKDY2MCwxNjYpIj48cGF0aCBpZD0iU3ZnanNQYXRoMTAzMSIgZD0iTSAwIDQyTCAxMjYgMEwgMjUyIDQyTCAxMjYgODRMIDAgNDJaIiBzdHJva2U9InJnYmEoNTAsNTAsNTAsMSkiIHN0cm9rZS13aWR0aD0iMiIgZmlsbC1vcGFjaXR5PSIxIiBmaWxsPSIjZmZmZmZmIi8+PGcgaWQ9IlN2Z2pzRzEwMzIiPjx0ZXh0IGlkPSJTdmdqc1RleHQxMDMzIiBmb250LWZhbWlseT0i5b6u6L2v6ZuF6buRIiB0ZXh0LWFuY2hvcj0ibWlkZGxlIiBmb250LXNpemU9IjEzcHgiIHdpZHRoPSIyMzJweCIgZmlsbD0iIzMyMzIzMiIgZm9udC13ZWlnaHQ9IjQwMCIgYWxpZ249Im1pZGRsZSIgbGluZWhlaWdodD0iMTI1JSIgYW5jaG9yPSJtaWRkbGUiIGZhbWlseT0i5b6u6L2v6ZuF6buRIiBzaXplPSIxM3B4IiB3ZWlnaHQ9IjQwMCIgZm9udC1zdHlsZT0iIiBvcGFjaXR5PSIxIiB5PSIyNC4zNzUiIHRyYW5zZm9ybT0icm90YXRlKDApIj48dHNwYW4gaWQ9IlN2Z2pzVHNwYW4xMDM0IiBkeT0iMTYiIHg9IjEyNiI+PHRzcGFuIGlkPSJTdmdqc1RzcGFuMTAzNSIgc3R5bGU9InRleHQtZGVjb3JhdGlvbjo7Ij5TZXJ2ZXJTb2NrZXRDaGFubmVsLmFjY2VwdCgp6I635Y+W5YiwPC90c3Bhbj48L3RzcGFuPjx0c3BhbiBpZD0iU3ZnanNUc3BhbjEwMzYiIGR5PSIxNiIgeD0iMTI2Ij48dHNwYW4gaWQ9IlN2Z2pzVHNwYW4xMDM3IiBzdHlsZT0idGV4dC1kZWNvcmF0aW9uOjsiPlNvY2tldENoYW5uZWzvvJ88L3RzcGFuPjwvdHNwYW4+PC90ZXh0PjwvZz48L2c+PGcgaWQ9IlN2Z2pzRzEwMzgiPjxwYXRoIGlkPSJTdmdqc1BhdGgxMDM5IiBkPSJNOTEyIDIwOEw5NDEuNSAyMDhMOTQxLjUgMjA4TDk3MSAyMDgiIHN0cm9rZT0iIzMyMzIzMiIgc3Ryb2tlLXdpZHRoPSIyIiBmaWxsPSJub25lIiBtYXJrZXItZW5kPSJ1cmwoI1N2Z2pzTWFya2VyMTA0MCkiLz48cmVjdCBpZD0iU3ZnanNSZWN0MTA0MiIgd2lkdGg9IjEzIiBoZWlnaHQ9IjE2IiB4PSI5MzUiIHk9IjIwMCIgZmlsbD0iI2ZmZmZmZiIvPjx0ZXh0IGlkPSJTdmdqc1RleHQxMDQzIiBmb250LWZhbWlseT0i5b6u6L2v6ZuF6buRIiB0ZXh0LWFuY2hvcj0ibWlkZGxlIiBmb250LXNpemU9IjEzcHgiIHdpZHRoPSIxM3B4IiBmaWxsPSIjMzIzMjMyIiBmb250LXdlaWdodD0iNDAwIiBhbGlnbj0idG9wIiBsaW5laGVpZ2h0PSIxNnB4IiBhbmNob3I9Im1pZGRsZSIgZmFtaWx5PSLlvq7ova/pm4Xpu5EiIHNpemU9IjEzcHgiIHdlaWdodD0iNDAwIiBmb250LXN0eWxlPSIiIG9wYWNpdHk9IjEiIHk9IjE5OC4zNzUiIHRyYW5zZm9ybT0icm90YXRlKDApIj48dHNwYW4gaWQ9IlN2Z2pzVHNwYW4xMDQ0IiBkeT0iMTYiIHg9Ijk0MS41Ij48dHNwYW4gaWQ9IlN2Z2pzVHNwYW4xMDQ1IiBzdHlsZT0idGV4dC1kZWNvcmF0aW9uOjsiPuaYrzwvdHNwYW4+PC90c3Bhbj48L3RleHQ+PC9nPjxnIGlkPSJTdmdqc0cxMDQ2IiB0cmFuc2Zvcm09InRyYW5zbGF0ZSg5NzEsMTczKSI+PHBhdGggaWQ9IlN2Z2pzUGF0aDEwNDciIGQ9Ik0gMCAwTCAxMDAgMEwgMTAwIDcwTCAwIDcwWiIgc3Ryb2tlPSJyZ2JhKDUwLDUwLDUwLDEpIiBzdHJva2Utd2lkdGg9IjIiIGZpbGwtb3BhY2l0eT0iMSIgZmlsbD0iI2ZmZmZmZiIvPjxnIGlkPSJTdmdqc0cxMDQ4Ij48dGV4dCBpZD0iU3ZnanNUZXh0MTA0OSIgZm9udC1mYW1pbHk9IuW+rui9r+mbhem7kSIgdGV4dC1hbmNob3I9Im1pZGRsZSIgZm9udC1zaXplPSIxM3B4IiB3aWR0aD0iODBweCIgZmlsbD0iIzMyMzIzMiIgZm9udC13ZWlnaHQ9IjQwMCIgYWxpZ249Im1pZGRsZSIgbGluZWhlaWdodD0iMTI1JSIgYW5jaG9yPSJtaWRkbGUiIGZhbWlseT0i5b6u6L2v6ZuF6buRIiBzaXplPSIxM3B4IiB3ZWlnaHQ9IjQwMCIgZm9udC1zdHlsZT0iIiBvcGFjaXR5PSIxIiB5PSIxNy4zNzUiIHRyYW5zZm9ybT0icm90YXRlKDApIj48dHNwYW4gaWQ9IlN2Z2pzVHNwYW4xMDUwIiBkeT0iMTYiIHg9IjUwIj48dHNwYW4gaWQ9IlN2Z2pzVHNwYW4xMDUxIiBzdHlsZT0idGV4dC1kZWNvcmF0aW9uOjsiPui9rOWMluaIkDwvdHNwYW4+PC90c3Bhbj48dHNwYW4gaWQ9IlN2Z2pzVHNwYW4xMDUyIiBkeT0iMTYiIHg9IjUwIj48dHNwYW4gaWQ9IlN2Z2pzVHNwYW4xMDUzIiBzdHlsZT0idGV4dC1kZWNvcmF0aW9uOjsiPk5pb0NoYW5uZWw8L3RzcGFuPjwvdHNwYW4+PC90ZXh0PjwvZz48L2c+PGcgaWQ9IlN2Z2pzRzEwNTQiIHRyYW5zZm9ybT0idHJhbnNsYXRlKDExMTUsMjUpIj48cGF0aCBpZD0iU3ZnanNQYXRoMTA1NSIgZD0iTSAwIDRRIDAgMCA0IDBMIDUwNSAwUSA1MDkgMCA1MDkgNEwgNTA5IDEzNzRRIDUwOSAxMzc4IDUwNSAxMzc4TCA0IDEzNzhRIDAgMTM3OCAwIDEzNzRaIiBzdHJva2U9InJnYmEoNTAsNTAsNTAsMSkiIHN0cm9rZS13aWR0aD0iMiIgZmlsbC1vcGFjaXR5PSIxIiBmaWxsPSIjZmZmZmZmIi8+PGcgaWQ9IlN2Z2pzRzEwNTYiPjx0ZXh0IGlkPSJTdmdqc1RleHQxMDU3IiBmb250LWZhbWlseT0i5b6u6L2v6ZuF6buRIiB0ZXh0LWFuY2hvcj0ibWlkZGxlIiBmb250LXNpemU9IjIxcHgiIHdpZHRoPSI0OTlweCIgZmlsbD0iI2ZmODAwMCIgZm9udC13ZWlnaHQ9IjcwMCIgYWxpZ249Im1pZGRsZSIgbGluZWhlaWdodD0iMTI1JSIgYW5jaG9yPSJtaWRkbGUiIGZhbWlseT0i5b6u6L2v6ZuF6buRIiBzaXplPSIyMXB4IiB3ZWlnaHQ9IjcwMCIgZm9udC1zdHlsZT0iIiBvcGFjaXR5PSIxIiB5PSI4MS44MDM1NzE0Mjg1NzE0MiIgdHJhbnNmb3JtPSJyb3RhdGUoMCkiPjx0c3BhbiBpZD0iU3ZnanNUc3BhbjEwNTgiIGR5PSIyNiIgeD0iMjU0LjUiPjx0c3BhbiBpZD0iU3ZnanNUc3BhbjEwNTkiIHN0eWxlPSJ0ZXh0LWRlY29yYXRpb246OyI+UG9sbGVyPC90c3Bhbj48L3RzcGFuPjwvdGV4dD48L2c+PC9nPjxnIGlkPSJTdmdqc0cxMDYwIiB0cmFuc2Zvcm09InRyYW5zbGF0ZSgxMTM5LDExMy4zNDM3NSkiPjxwYXRoIGlkPSJTdmdqc1BhdGgxMDYxIiBkPSJNIDAgMEwgMTc2IDBMIDE3NiAxODkuMzEyNUwgMCAxODkuMzEyNVoiIHN0cm9rZT0icmdiYSg1MCw1MCw1MCwxKSIgc3Ryb2tlLXdpZHRoPSIyIiBmaWxsLW9wYWNpdHk9IjEiIGZpbGw9IiNmZmZmZmYiLz48ZyBpZD0iU3ZnanNHMTA2MiI+PHRleHQgaWQ9IlN2Z2pzVGV4dDEwNjMiIGZvbnQtZmFtaWx5PSLlvq7ova/pm4Xpu5EiIHRleHQtYW5jaG9yPSJzdGFydCIgZm9udC1zaXplPSIxM3B4IiB3aWR0aD0iMTU2cHgiIGZpbGw9IiMzMjMyMzIiIGZvbnQtd2VpZ2h0PSI0MDAiIGFsaWduPSJtaWRkbGUiIGxpbmVoZWlnaHQ9IjEyNSUiIGFuY2hvcj0ic3RhcnQiIGZhbWlseT0i5b6u6L2v6ZuF6buRIiBzaXplPSIxM3B4IiB3ZWlnaHQ9IjQwMCIgZm9udC1zdHlsZT0iIiBvcGFjaXR5PSIxIiB5PSI0NS4wMzEyNSIgdHJhbnNmb3JtPSJyb3RhdGUoMCkiPjx0c3BhbiBpZD0iU3ZnanNUc3BhbjEwNjQiIGR5PSIxNiIgeD0iMTAiPjx0c3BhbiBpZD0iU3ZnanNUc3BhbjEwNjUiIHN0eWxlPSJ0ZXh0LWRlY29yYXRpb246OyI+cmVnaXN0ZXIoKeWwhk5pb0NoYW5uZWzovaw8L3RzcGFuPjwvdHNwYW4+PHRzcGFuIGlkPSJTdmdqc1RzcGFuMTA2NiIgZHk9IjE2IiB4PSIxMCI+PHRzcGFuIGlkPSJTdmdqc1RzcGFuMTA2NyIgc3R5bGU9InRleHQtZGVjb3JhdGlvbjo7Ij7ljJbmiJA8L3RzcGFuPjwvdHNwYW4+PHRzcGFuIGlkPSJTdmdqc1RzcGFuMTA2OCIgZHk9IjE2IiB4PSIxMCI+PHRzcGFuIGlkPSJTdmdqc1RzcGFuMTA2OSIgc3R5bGU9InRleHQtZGVjb3JhdGlvbjo7Ij5OaW9Tb2NrZXRXcmFwcGVy77yMPC90c3Bhbj48L3RzcGFuPjx0c3BhbiBpZD0iU3ZnanNUc3BhbjEwNzAiIGR5PSIxNiIgeD0iMTAiPjx0c3BhbiBpZD0iU3ZnanNUc3BhbjEwNzEiIHN0eWxlPSJ0ZXh0LWRlY29yYXRpb246OyI+T1BfUkVBROOAgiZsdDsvYnImZ3Q755Sf5oiQPC90c3Bhbj48L3RzcGFuPjx0c3BhbiBpZD0iU3ZnanNUc3BhbjEwNzIiIGR5PSIxNiIgeD0iMTAiPjx0c3BhbiBpZD0iU3ZnanNUc3BhbjEwNzMiIHN0eWxlPSJ0ZXh0LWRlY29yYXRpb246OyI+UG9sbGVyRXZlbnQsT1BfUkVHSVNURTwvdHNwYW4+PC90c3Bhbj48dHNwYW4gaWQ9IlN2Z2pzVHNwYW4xMDc0IiBkeT0iMTYiIHg9IjEwIj48dHNwYW4gaWQ9IlN2Z2pzVHNwYW4xMDc1IiBzdHlsZT0idGV4dC1kZWNvcmF0aW9uOjsiPlI8L3RzcGFuPjwvdHNwYW4+PC90ZXh0PjwvZz48L2c+PGcgaWQ9IlN2Z2pzRzEwNzYiPjxwYXRoIGlkPSJTdmdqc1BhdGgxMDc3IiBkPSJNMTA3MSAyMDhMMTEwNSAyMDhMMTEwNSAyMDhMMTEzOSAyMDgiIHN0cm9rZT0iIzMyMzIzMiIgc3Ryb2tlLXdpZHRoPSIyIiBmaWxsPSJub25lIiBtYXJrZXItZW5kPSJ1cmwoI1N2Z2pzTWFya2VyMTA3OCkiLz48L2c+PGcgaWQ9IlN2Z2pzRzEwODAiPjxwYXRoIGlkPSJTdmdqc1BhdGgxMDgxIiBkPSJNMTMxNSAyMDhMMTM0NiAyMDhMMTM0NiAyMDhMMTM3NyAyMDgiIHN0cm9rZT0iIzMyMzIzMiIgc3Ryb2tlLXdpZHRoPSIyIiBmaWxsPSJub25lIiBtYXJrZXItZW5kPSJ1cmwoI1N2Z2pzTWFya2VyMTA4MikiLz48L2c+PGcgaWQ9IlN2Z2pzRzEwODQiIHRyYW5zZm9ybT0idHJhbnNsYXRlKDEzNzcsMTczKSI+PHBhdGggaWQ9IlN2Z2pzUGF0aDEwODUiIGQ9Ik0gMCAwTCAxMDAgMEwgMTAwIDcwTCAwIDcwWiIgc3Ryb2tlPSJyZ2JhKDUwLDUwLDUwLDEpIiBzdHJva2Utd2lkdGg9IjIiIGZpbGwtb3BhY2l0eT0iMSIgZmlsbD0iI2ZmZmZmZiIvPjxnIGlkPSJTdmdqc0cxMDg2Ij48dGV4dCBpZD0iU3ZnanNUZXh0MTA4NyIgZm9udC1mYW1pbHk9IuW+rui9r+mbhem7kSIgdGV4dC1hbmNob3I9Im1pZGRsZSIgZm9udC1zaXplPSIxM3B4IiB3aWR0aD0iODBweCIgZmlsbD0iIzMyMzIzMiIgZm9udC13ZWlnaHQ9IjQwMCIgYWxpZ249Im1pZGRsZSIgbGluZWhlaWdodD0iMTI1JSIgYW5jaG9yPSJtaWRkbGUiIGZhbWlseT0i5b6u6L2v6ZuF6buRIiBzaXplPSIxM3B4IiB3ZWlnaHQ9IjQwMCIgZm9udC1zdHlsZT0iIiBvcGFjaXR5PSIxIiB5PSIxLjM3NSIgdHJhbnNmb3JtPSJyb3RhdGUoMCkiPjx0c3BhbiBpZD0iU3ZnanNUc3BhbjEwODgiIGR5PSIxNiIgeD0iNTAiPjx0c3BhbiBpZD0iU3ZnanNUc3BhbjEwODkiIHN0eWxlPSJ0ZXh0LWRlY29yYXRpb246OyI+YWRkRXZlbnQoKeWwhjwvdHNwYW4+PC90c3Bhbj48dHNwYW4gaWQ9IlN2Z2pzVHNwYW4xMDkwIiBkeT0iMTYiIHg9IjUwIj48dHNwYW4gaWQ9IlN2Z2pzVHNwYW4xMDkxIiBzdHlsZT0idGV4dC1kZWNvcmF0aW9uOjsiPlBvbGxlckV2ZW50PC90c3Bhbj48L3RzcGFuPjx0c3BhbiBpZD0iU3ZnanNUc3BhbjEwOTIiIGR5PSIxNiIgeD0iNTAiPjx0c3BhbiBpZD0iU3ZnanNUc3BhbjEwOTMiIHN0eWxlPSJ0ZXh0LWRlY29yYXRpb246OyI+5Yqg5YWlZXZlbnRz5ZCMPC90c3Bhbj48L3RzcGFuPjx0c3BhbiBpZD0iU3ZnanNUc3BhbjEwOTQiIGR5PSIxNiIgeD0iNTAiPjx0c3BhbiBpZD0iU3ZnanNUc3BhbjEwOTUiIHN0eWxlPSJ0ZXh0LWRlY29yYXRpb246OyI+5q2l6Zif5YiXPC90c3Bhbj48L3RzcGFuPjwvdGV4dD48L2c+PC9nPjxnIGlkPSJTdmdqc0cxMDk2Ij48cGF0aCBpZD0iU3ZnanNQYXRoMTA5NyIgZD0iTTE0NzcgMjA4TDE1MDcgMjA4TDE1MDcgMzIyTDg0IDMyMkw4NCAyNDMiIHN0cm9rZT0iIzMyMzIzMiIgc3Ryb2tlLXdpZHRoPSIyIiBmaWxsPSJub25lIiBtYXJrZXItZW5kPSJ1cmwoI1N2Z2pzTWFya2VyMTA5OCkiLz48L2c+PGcgaWQ9IlN2Z2pzRzExMDAiPjxwYXRoIGlkPSJTdmdqc1BhdGgxMTAxIiBkPSJNNTc2IDIwOEw2MTggMjA4TDYxOCAyMDhMNjYwIDIwOCIgc3Ryb2tlPSIjMzIzMjMyIiBzdHJva2Utd2lkdGg9IjIiIGZpbGw9Im5vbmUiIG1hcmtlci1lbmQ9InVybCgjU3ZnanNNYXJrZXIxMTAyKSIvPjxyZWN0IGlkPSJTdmdqc1JlY3QxMTA0IiB3aWR0aD0iMTMiIGhlaWdodD0iMTYiIHg9IjYxMS41IiB5PSIyMDAiIGZpbGw9IiNmZmZmZmYiLz48dGV4dCBpZD0iU3ZnanNUZXh0MTEwNSIgZm9udC1mYW1pbHk9IuW+rui9r+mbhem7kSIgdGV4dC1hbmNob3I9Im1pZGRsZSIgZm9udC1zaXplPSIxM3B4IiB3aWR0aD0iMTNweCIgZmlsbD0iIzMyMzIzMiIgZm9udC13ZWlnaHQ9IjQwMCIgYWxpZ249InRvcCIgbGluZWhlaWdodD0iMTZweCIgYW5jaG9yPSJtaWRkbGUiIGZhbWlseT0i5b6u6L2v6ZuF6buRIiBzaXplPSIxM3B4IiB3ZWlnaHQ9IjQwMCIgZm9udC1zdHlsZT0iIiBvcGFjaXR5PSIxIiB5PSIxOTguMzc1IiB0cmFuc2Zvcm09InJvdGF0ZSgwKSI+PHRzcGFuIGlkPSJTdmdqc1RzcGFuMTEwNiIgZHk9IjE2IiB4PSI2MTgiPjx0c3BhbiBpZD0iU3ZnanNUc3BhbjExMDciIHN0eWxlPSJ0ZXh0LWRlY29yYXRpb246OyI+5pivPC90c3Bhbj48L3RzcGFuPjwvdGV4dD48L2c+PGcgaWQ9IlN2Z2pzRzExMDgiPjxwYXRoIGlkPSJTdmdqc1BhdGgxMTA5IiBkPSJNNzg2IDI1MEw3ODYgMjgwTDk0MS41IDI4MEw5NDEuNSAyMDhMOTcxIDIwOCIgc3Ryb2tlPSIjMzIzMjMyIiBzdHJva2Utd2lkdGg9IjIiIGZpbGw9Im5vbmUiIG1hcmtlci1lbmQ9InVybCgjU3ZnanNNYXJrZXIxMTEwKSIvPjxyZWN0IGlkPSJTdmdqc1JlY3QxMTEyIiB3aWR0aD0iMTgxIiBoZWlnaHQ9IjE2IiB4PSI4MDkiIHk9IjI3MiIgZmlsbD0iI2ZmZmZmZiIvPjx0ZXh0IGlkPSJTdmdqc1RleHQxMTEzIiBmb250LWZhbWlseT0i5b6u6L2v6ZuF6buRIiB0ZXh0LWFuY2hvcj0ibWlkZGxlIiBmb250LXNpemU9IjEzcHgiIHdpZHRoPSIxODFweCIgZmlsbD0iIzMyMzIzMiIgZm9udC13ZWlnaHQ9IjQwMCIgYWxpZ249InRvcCIgbGluZWhlaWdodD0iMTZweCIgYW5jaG9yPSJtaWRkbGUiIGZhbWlseT0i5b6u6L2v6ZuF6buRIiBzaXplPSIxM3B4IiB3ZWlnaHQ9IjQwMCIgZm9udC1zdHlsZT0iIiBvcGFjaXR5PSIxIiB5PSIyNzAuMzc1IiB0cmFuc2Zvcm09InJvdGF0ZSgwKSI+PHRzcGFuIGlkPSJTdmdqc1RzcGFuMTExNCIgZHk9IjE2IiB4PSI4OTkuNSI+PHRzcGFuIGlkPSJTdmdqc1RzcGFuMTExNSIgc3R5bGU9InRleHQtZGVjb3JhdGlvbjo7Ij7lkKbvvIzpmLvloZ7vvIznm7TliLDojrflj5bliLBDaGFubmVsPC90c3Bhbj48L3RzcGFuPjwvdGV4dD48L2c+PGcgaWQ9IlN2Z2pzRzExMTYiIHRyYW5zZm9ybT0idHJhbnNsYXRlKDM5LDE3MykiPjxwYXRoIGlkPSJTdmdqc1BhdGgxMTE3IiBkPSJNIDAgMzVMIDQ1IDBMIDkwIDM1TCA0NSA3MEwgMCAzNVoiIHN0cm9rZT0icmdiYSg1MCw1MCw1MCwxKSIgc3Ryb2tlLXdpZHRoPSIyIiBmaWxsLW9wYWNpdHk9IjEiIGZpbGw9IiNmZmZmZmYiLz48ZyBpZD0iU3ZnanNHMTExOCI+PHRleHQgaWQ9IlN2Z2pzVGV4dDExMTkiIGZvbnQtZmFtaWx5PSLlvq7ova/pm4Xpu5EiIHRleHQtYW5jaG9yPSJtaWRkbGUiIGZvbnQtc2l6ZT0iMTNweCIgd2lkdGg9IjcwcHgiIGZpbGw9IiMzMjMyMzIiIGZvbnQtd2VpZ2h0PSI0MDAiIGFsaWduPSJtaWRkbGUiIGxpbmVoZWlnaHQ9IjEyNSUiIGFuY2hvcj0ibWlkZGxlIiBmYW1pbHk9IuW+rui9r+mbhem7kSIgc2l6ZT0iMTNweCIgd2VpZ2h0PSI0MDAiIGZvbnQtc3R5bGU9IiIgb3BhY2l0eT0iMSIgeT0iMjUuMzc1IiB0cmFuc2Zvcm09InJvdGF0ZSgwKSI+PHRzcGFuIGlkPSJTdmdqc1RzcGFuMTEyMCIgZHk9IjE2IiB4PSI0NSI+PHRzcGFuIGlkPSJTdmdqc1RzcGFuMTEyMSIgc3R5bGU9InRleHQtZGVjb3JhdGlvbjo7Ij5ydW5uaW5n77yfPC90c3Bhbj48L3RzcGFuPjwvdGV4dD48L2c+PC9nPjxnIGlkPSJTdmdqc0cxMTIyIj48cGF0aCBpZD0iU3ZnanNQYXRoMTEyMyIgZD0iTTEyOSAyMDhMMTYzIDIwOEwxNjMgMjA4TDE5NyAyMDgiIHN0cm9rZT0iIzMyMzIzMiIgc3Ryb2tlLXdpZHRoPSIyIiBmaWxsPSJub25lIiBtYXJrZXItZW5kPSJ1cmwoI1N2Z2pzTWFya2VyMTEyNCkiLz48cmVjdCBpZD0iU3ZnanNSZWN0MTEyNiIgd2lkdGg9IjEzIiBoZWlnaHQ9IjE2IiB4PSIxNTYuNSIgeT0iMjAwIiBmaWxsPSIjZmZmZmZmIi8+PHRleHQgaWQ9IlN2Z2pzVGV4dDExMjciIGZvbnQtZmFtaWx5PSLlvq7ova/pm4Xpu5EiIHRleHQtYW5jaG9yPSJtaWRkbGUiIGZvbnQtc2l6ZT0iMTNweCIgd2lkdGg9IjEzcHgiIGZpbGw9IiMzMjMyMzIiIGZvbnQtd2VpZ2h0PSI0MDAiIGFsaWduPSJ0b3AiIGxpbmVoZWlnaHQ9IjE2cHgiIGFuY2hvcj0ibWlkZGxlIiBmYW1pbHk9IuW+rui9r+mbhem7kSIgc2l6ZT0iMTNweCIgd2VpZ2h0PSI0MDAiIGZvbnQtc3R5bGU9IiIgb3BhY2l0eT0iMSIgeT0iMTk4LjM3NSIgdHJhbnNmb3JtPSJyb3RhdGUoMCkiPjx0c3BhbiBpZD0iU3ZnanNUc3BhbjExMjgiIGR5PSIxNiIgeD0iMTYzIj48dHNwYW4gaWQ9IlN2Z2pzVHNwYW4xMTI5IiBzdHlsZT0idGV4dC1kZWNvcmF0aW9uOjsiPuaYrzwvdHNwYW4+PC90c3Bhbj48L3RleHQ+PC9nPjxnIGlkPSJTdmdqc0cxMTMwIiB0cmFuc2Zvcm09InRyYW5zbGF0ZSgxOTcsMTczKSI+PHBhdGggaWQ9IlN2Z2pzUGF0aDExMzEiIGQ9Ik0gMCAzNUwgNTUgMEwgMTEwIDM1TCA1NSA3MEwgMCAzNVoiIHN0cm9rZT0icmdiYSg1MCw1MCw1MCwxKSIgc3Ryb2tlLXdpZHRoPSIyIiBmaWxsLW9wYWNpdHk9IjEiIGZpbGw9IiNmZmZmZmYiLz48ZyBpZD0iU3ZnanNHMTEzMiI+PHRleHQgaWQ9IlN2Z2pzVGV4dDExMzMiIGZvbnQtZmFtaWx5PSLlvq7ova/pm4Xpu5EiIHRleHQtYW5jaG9yPSJtaWRkbGUiIGZvbnQtc2l6ZT0iMTNweCIgd2lkdGg9IjkwcHgiIGZpbGw9IiMzMjMyMzIiIGZvbnQtd2VpZ2h0PSI0MDAiIGFsaWduPSJtaWRkbGUiIGxpbmVoZWlnaHQ9IjEyNSUiIGFuY2hvcj0ibWlkZGxlIiBmYW1pbHk9IuW+rui9r+mbhem7kSIgc2l6ZT0iMTNweCIgd2VpZ2h0PSI0MDAiIGZvbnQtc3R5bGU9IiIgb3BhY2l0eT0iMSIgeT0iOS4zNzUiIHRyYW5zZm9ybT0icm90YXRlKDApIj48dHNwYW4gaWQ9IlN2Z2pzVHNwYW4xMTM0IiBkeT0iMTYiIHg9IjU1Ij48dHNwYW4gaWQ9IlN2Z2pzVHNwYW4xMTM1IiBzdHlsZT0idGV4dC1kZWNvcmF0aW9uOjsiPmVuZHBvaW50Jmx0Oy9icjwvdHNwYW4+PC90c3Bhbj48dHNwYW4gaWQ9IlN2Z2pzVHNwYW4xMTM2IiBkeT0iMTYiIHg9IjU1Ij48dHNwYW4gaWQ9IlN2Z2pzVHNwYW4xMTM3IiBzdHlsZT0idGV4dC1kZWNvcmF0aW9uOjsiPiZndDsmYW1wOyZhbXA7cnVubmluZzwvdHNwYW4+PC90c3Bhbj48dHNwYW4gaWQ9IlN2Z2pzVHNwYW4xMTM4IiBkeT0iMTYiIHg9IjU1Ij48dHNwYW4gaWQ9IlN2Z2pzVHNwYW4xMTM5IiBzdHlsZT0idGV4dC1kZWNvcmF0aW9uOjsiPu+8nzwvdHNwYW4+PC90c3Bhbj48L3RleHQ+PC9nPjwvZz48ZyBpZD0iU3ZnanNHMTE0MCI+PHBhdGggaWQ9IlN2Z2pzUGF0aDExNDEiIGQ9Ik04NCAxNzNMODQgOThMMzQyIDk4IiBzdHJva2U9IiMzMjMyMzIiIHN0cm9rZS13aWR0aD0iMiIgZmlsbD0ibm9uZSIgbWFya2VyLWVuZD0idXJsKCNTdmdqc01hcmtlcjExNDIpIi8+PHJlY3QgaWQ9IlN2Z2pzUmVjdDExNDQiIHdpZHRoPSIxMyIgaGVpZ2h0PSIxNiIgeD0iMTY5IiB5PSI5MCIgZmlsbD0iI2ZmZmZmZiIvPjx0ZXh0IGlkPSJTdmdqc1RleHQxMTQ1IiBmb250LWZhbWlseT0i5b6u6L2v6ZuF6buRIiB0ZXh0LWFuY2hvcj0ibWlkZGxlIiBmb250LXNpemU9IjEzcHgiIHdpZHRoPSIxM3B4IiBmaWxsPSIjMzIzMjMyIiBmb250LXdlaWdodD0iNDAwIiBhbGlnbj0idG9wIiBsaW5laGVpZ2h0PSIxNnB4IiBhbmNob3I9Im1pZGRsZSIgZmFtaWx5PSLlvq7ova/pm4Xpu5EiIHNpemU9IjEzcHgiIHdlaWdodD0iNDAwIiBmb250LXN0eWxlPSIiIG9wYWNpdHk9IjEiIHk9Ijg4LjM3NSIgdHJhbnNmb3JtPSJyb3RhdGUoMCkiPjx0c3BhbiBpZD0iU3ZnanNUc3BhbjExNDYiIGR5PSIxNiIgeD0iMTc1LjUiPjx0c3BhbiBpZD0iU3ZnanNUc3BhbjExNDciIHN0eWxlPSJ0ZXh0LWRlY29yYXRpb246OyI+5ZCmPC90c3Bhbj48L3RzcGFuPjwvdGV4dD48L2c+PGcgaWQ9IlN2Z2pzRzExNDgiIHRyYW5zZm9ybT0idHJhbnNsYXRlKDM0Miw2MykiPjxwYXRoIGlkPSJTdmdqc1BhdGgxMTQ5IiBkPSJNIDAgMEwgMTE0IDBMIDExNCA3MEwgMCA3MFoiIHN0cm9rZT0icmdiYSg1MCw1MCw1MCwxKSIgc3Ryb2tlLXdpZHRoPSIyIiBmaWxsLW9wYWNpdHk9IjEiIGZpbGw9IiNmZmZmZmYiLz48ZyBpZD0iU3ZnanNHMTE1MCI+PHRleHQgaWQ9IlN2Z2pzVGV4dDExNTEiIGZvbnQtZmFtaWx5PSLlvq7ova/pm4Xpu5EiIHRleHQtYW5jaG9yPSJtaWRkbGUiIGZvbnQtc2l6ZT0iMTNweCIgd2lkdGg9Ijk0cHgiIGZpbGw9IiMzMjMyMzIiIGZvbnQtd2VpZ2h0PSI0MDAiIGFsaWduPSJtaWRkbGUiIGxpbmVoZWlnaHQ9IjEyNSUiIGFuY2hvcj0ibWlkZGxlIiBmYW1pbHk9IuW+rui9r+mbhem7kSIgc2l6ZT0iMTNweCIgd2VpZ2h0PSI0MDAiIGZvbnQtc3R5bGU9IiIgb3BhY2l0eT0iMSIgeT0iMTcuMzc1IiB0cmFuc2Zvcm09InJvdGF0ZSgwKSI+PHRzcGFuIGlkPSJTdmdqc1RzcGFuMTE1MiIgZHk9IjE2IiB4PSI1NyI+PHRzcGFuIGlkPSJTdmdqc1RzcGFuMTE1MyIgc3R5bGU9InRleHQtZGVjb3JhdGlvbjo7Ij7ot7Plh7rlvqrnjq/vvIznirbmgIE8L3RzcGFuPjwvdHNwYW4+PHRzcGFuIGlkPSJTdmdqc1RzcGFuMTE1NCIgZHk9IjE2IiB4PSI1NyI+PHRzcGFuIGlkPSJTdmdqc1RzcGFuMTE1NSIgc3R5bGU9InRleHQtZGVjb3JhdGlvbjo7Ij7mlLnkuLpFTkRFRDwvdHNwYW4+PC90c3Bhbj48L3RleHQ+PC9nPjwvZz48ZyBpZD0iU3ZnanNHMTE1NiI+PHBhdGggaWQ9IlN2Z2pzUGF0aDExNTciIGQ9Ik0zMDcgMjA4TDMzMC41IDIwOEwzMzAuNSAyMDhMMzU0IDIwOCIgc3Ryb2tlPSIjMzIzMjMyIiBzdHJva2Utd2lkdGg9IjIiIGZpbGw9Im5vbmUiIG1hcmtlci1lbmQ9InVybCgjU3ZnanNNYXJrZXIxMTU4KSIvPjxyZWN0IGlkPSJTdmdqc1JlY3QxMTYwIiB3aWR0aD0iMTMiIGhlaWdodD0iMTYiIHg9IjMyNCIgeT0iMjAwIiBmaWxsPSIjZmZmZmZmIi8+PHRleHQgaWQ9IlN2Z2pzVGV4dDExNjEiIGZvbnQtZmFtaWx5PSLlvq7ova/pm4Xpu5EiIHRleHQtYW5jaG9yPSJtaWRkbGUiIGZvbnQtc2l6ZT0iMTNweCIgd2lkdGg9IjEzcHgiIGZpbGw9IiMzMjMyMzIiIGZvbnQtd2VpZ2h0PSI0MDAiIGFsaWduPSJ0b3AiIGxpbmVoZWlnaHQ9IjE2cHgiIGFuY2hvcj0ibWlkZGxlIiBmYW1pbHk9IuW+rui9r+mbhem7kSIgc2l6ZT0iMTNweCIgd2VpZ2h0PSI0MDAiIGZvbnQtc3R5bGU9IiIgb3BhY2l0eT0iMSIgeT0iMTk4LjM3NSIgdHJhbnNmb3JtPSJyb3RhdGUoMCkiPjx0c3BhbiBpZD0iU3ZnanNUc3BhbjExNjIiIGR5PSIxNiIgeD0iMzMwLjUiPjx0c3BhbiBpZD0iU3ZnanNUc3BhbjExNjMiIHN0eWxlPSJ0ZXh0LWRlY29yYXRpb246OyI+5ZCmPC90c3Bhbj48L3RzcGFuPjwvdGV4dD48L2c+PGcgaWQ9IlN2Z2pzRzExNjQiIHRyYW5zZm9ybT0idHJhbnNsYXRlKDM1NCwxNzMpIj48cGF0aCBpZD0iU3ZnanNQYXRoMTE2NSIgZD0iTSAwIDM1TCA0NSAwTCA5MCAzNUwgNDUgNzBMIDAgMzVaIiBzdHJva2U9InJnYmEoNTAsNTAsNTAsMSkiIHN0cm9rZS13aWR0aD0iMiIgZmlsbC1vcGFjaXR5PSIxIiBmaWxsPSIjZmZmZmZmIi8+PGcgaWQ9IlN2Z2pzRzExNjYiPjx0ZXh0IGlkPSJTdmdqc1RleHQxMTY3IiBmb250LWZhbWlseT0i5b6u6L2v6ZuF6buRIiB0ZXh0LWFuY2hvcj0ibWlkZGxlIiBmb250LXNpemU9IjEzcHgiIHdpZHRoPSI3MHB4IiBmaWxsPSIjMzIzMjMyIiBmb250LXdlaWdodD0iNDAwIiBhbGlnbj0ibWlkZGxlIiBsaW5laGVpZ2h0PSIxMjUlIiBhbmNob3I9Im1pZGRsZSIgZmFtaWx5PSLlvq7ova/pm4Xpu5EiIHNpemU9IjEzcHgiIHdlaWdodD0iNDAwIiBmb250LXN0eWxlPSIiIG9wYWNpdHk9IjEiIHk9IjI1LjM3NSIgdHJhbnNmb3JtPSJyb3RhdGUoMCkiPjx0c3BhbiBpZD0iU3ZnanNUc3BhbjExNjgiIGR5PSIxNiIgeD0iNDUiPjx0c3BhbiBpZD0iU3ZnanNUc3BhbjExNjkiIHN0eWxlPSJ0ZXh0LWRlY29yYXRpb246OyI+cnVubmluZ++8nzwvdHNwYW4+PC90c3Bhbj48L3RleHQ+PC9nPjwvZz48ZyBpZD0iU3ZnanNHMTE3MCI+PHBhdGggaWQ9IlN2Z2pzUGF0aDExNzEiIGQ9Ik00NDQgMjA4TDQ2NSAyMDhMNDY1IDIwOEw0ODYgMjA4IiBzdHJva2U9IiMzMjMyMzIiIHN0cm9rZS13aWR0aD0iMiIgZmlsbD0ibm9uZSIgbWFya2VyLWVuZD0idXJsKCNTdmdqc01hcmtlcjExNzIpIi8+PHJlY3QgaWQ9IlN2Z2pzUmVjdDExNzQiIHdpZHRoPSIxMyIgaGVpZ2h0PSIxNiIgeD0iNDU4LjUiIHk9IjIwMCIgZmlsbD0iI2ZmZmZmZiIvPjx0ZXh0IGlkPSJTdmdqc1RleHQxMTc1IiBmb250LWZhbWlseT0i5b6u6L2v6ZuF6buRIiB0ZXh0LWFuY2hvcj0ibWlkZGxlIiBmb250LXNpemU9IjEzcHgiIHdpZHRoPSIxM3B4IiBmaWxsPSIjMzIzMjMyIiBmb250LXdlaWdodD0iNDAwIiBhbGlnbj0idG9wIiBsaW5laGVpZ2h0PSIxNnB4IiBhbmNob3I9Im1pZGRsZSIgZmFtaWx5PSLlvq7ova/pm4Xpu5EiIHNpemU9IjEzcHgiIHdlaWdodD0iNDAwIiBmb250LXN0eWxlPSIiIG9wYWNpdHk9IjEiIHk9IjE5OC4zNzUiIHRyYW5zZm9ybT0icm90YXRlKDApIj48dHNwYW4gaWQ9IlN2Z2pzVHNwYW4xMTc2IiBkeT0iMTYiIHg9IjQ2NSI+PHRzcGFuIGlkPSJTdmdqc1RzcGFuMTE3NyIgc3R5bGU9InRleHQtZGVjb3JhdGlvbjo7Ij7mmK88L3RzcGFuPjwvdHNwYW4+PC90ZXh0PjwvZz48ZyBpZD0iU3ZnanNHMTE3OCI+PHBhdGggaWQ9IlN2Z2pzUGF0aDExNzkiIGQ9Ik0zOTkgMTczTDM5OSAxNTNMMzk5IDE1M0wzOTkgMTMzIiBzdHJva2U9IiMzMjMyMzIiIHN0cm9rZS13aWR0aD0iMiIgZmlsbD0ibm9uZSIgbWFya2VyLWVuZD0idXJsKCNTdmdqc01hcmtlcjExODApIi8+PHJlY3QgaWQ9IlN2Z2pzUmVjdDExODIiIHdpZHRoPSIxMyIgaGVpZ2h0PSIxNiIgeD0iMzkyLjUiIHk9IjE0NSIgZmlsbD0iI2ZmZmZmZiIvPjx0ZXh0IGlkPSJTdmdqc1RleHQxMTgzIiBmb250LWZhbWlseT0i5b6u6L2v6ZuF6buRIiB0ZXh0LWFuY2hvcj0ibWlkZGxlIiBmb250LXNpemU9IjEzcHgiIHdpZHRoPSIxM3B4IiBmaWxsPSIjMzIzMjMyIiBmb250LXdlaWdodD0iNDAwIiBhbGlnbj0idG9wIiBsaW5laGVpZ2h0PSIxNnB4IiBhbmNob3I9Im1pZGRsZSIgZmFtaWx5PSLlvq7ova/pm4Xpu5EiIHNpemU9IjEzcHgiIHdlaWdodD0iNDAwIiBmb250LXN0eWxlPSIiIG9wYWNpdHk9IjEiIHk9IjE0My4zNzUiIHRyYW5zZm9ybT0icm90YXRlKDApIj48dHNwYW4gaWQ9IlN2Z2pzVHNwYW4xMTg0IiBkeT0iMTYiIHg9IjM5OSI+PHRzcGFuIGlkPSJTdmdqc1RzcGFuMTE4NSIgc3R5bGU9InRleHQtZGVjb3JhdGlvbjo7Ij7lkKY8L3RzcGFuPjwvdHNwYW4+PC90ZXh0PjwvZz48ZyBpZD0iU3ZnanNHMTE4NiIgdHJhbnNmb3JtPSJ0cmFuc2xhdGUoNjMyLjUsODAuNSkiPjxwYXRoIGlkPSJTdmdqc1BhdGgxMTg3IiBkPSJNIDAgMEwgMjk3IDBMIDMxMyAxNkwgMzEzIDgxLjI1TCAwIDgxLjI1TCAwIDBaIiBzdHJva2U9Im5vbmUiIGZpbGwtb3BhY2l0eT0iMSIgZmlsbD0iI2ZmZmZhYSIvPjxwYXRoIGlkPSJTdmdqc1BhdGgxMTg4IiBkPSJNIDI5NyAwTCAyOTcgMTZMIDMxMyAxNloiIHN0cm9rZT0ibm9uZSIgZmlsbC1vcGFjaXR5PSIxIiBmaWxsPSIjY2RjZGNkIi8+PHBhdGggaWQ9IlN2Z2pzUGF0aDExODkiIGQ9Ik0gMCAwTCAyOTcgMEwgMzEzIDE2TCAzMTMgODEuMjVMIDAgODEuMjVMIDAgMFoiIHN0cm9rZT0ibm9uZSIgZmlsbD0ibm9uZSIvPjxnIGlkPSJTdmdqc0cxMTkwIj48dGV4dCBpZD0iU3ZnanNUZXh0MTE5MSIgZm9udC1mYW1pbHk9IuW+rui9r+mbhem7kSIgdGV4dC1hbmNob3I9InN0YXJ0IiBmb250LXNpemU9IjEzcHgiIHdpZHRoPSIyOTNweCIgZmlsbD0iIzMyMzIzMiIgZm9udC13ZWlnaHQ9IjQwMCIgYWxpZ249Im1pZGRsZSIgbGluZWhlaWdodD0iMTI1JSIgYW5jaG9yPSJzdGFydCIgZmFtaWx5PSLlvq7ova/pm4Xpu5EiIHNpemU9IjEzcHgiIHdlaWdodD0iNDAwIiBmb250LXN0eWxlPSIiIG9wYWNpdHk9IjEiIHk9IjE1IiB0cmFuc2Zvcm09InJvdGF0ZSgwKSI+PHRzcGFuIGlkPSJTdmdqc1RzcGFuMTE5MiIgZHk9IjE2IiB4PSIxMCI+PHRzcGFuIGlkPSJTdmdqc1RzcGFuMTE5MyIgc3R5bGU9InRleHQtZGVjb3JhdGlvbjo7Ij50b21jYXTphY3nva7nmoRhY2NlcHRDb3VudOeahOWAvOWcqOatpOi1t+WIsOS9nOeUqDwvdHNwYW4+PC90c3Bhbj48dHNwYW4gaWQ9IlN2Z2pzVHNwYW4xMTk0IiBkeT0iMTYiIHg9IjEwIj48dHNwYW4gaWQ9IlN2Z2pzVHNwYW4xMTk1IiBzdHlsZT0idGV4dC1kZWNvcmF0aW9uOjsiPiZsdDsvYnImZ3Q7U2VydmVyU29ja2V0Q2hhbm5lbC5iaW5kKGFkZHIsYWNjZXB0QzwvdHNwYW4+PC90c3Bhbj48dHNwYW4gaWQ9IlN2Z2pzVHNwYW4xMTk2IiBkeT0iMTYiIHg9IjEwIj48dHNwYW4gaWQ9IlN2Z2pzVHNwYW4xMTk3IiBzdHlsZT0idGV4dC1kZWNvcmF0aW9uOjsiPm91bnQpJmx0Oy9iciZndDvpmLvloZ7mqKHlvI88L3RzcGFuPjwvdHNwYW4+PC90ZXh0PjwvZz48L2c+PGcgaWQ9IlN2Z2pzRzExOTgiIHRyYW5zZm9ybT0idHJhbnNsYXRlKDEyODQsMzY2KSI+PHBhdGggaWQ9IlN2Z2pzUGF0aDExOTkiIGQ9Ik0gMCAzNUwgNDUgMEwgOTAgMzVMIDQ1IDcwTCAwIDM1WiIgc3Ryb2tlPSJyZ2JhKDUwLDUwLDUwLDEpIiBzdHJva2Utd2lkdGg9IjIiIGZpbGwtb3BhY2l0eT0iMSIgZmlsbD0iI2ZmZmZmZiIvPjxnIGlkPSJTdmdqc0cxMjAwIj48dGV4dCBpZD0iU3ZnanNUZXh0MTIwMSIgZm9udC1mYW1pbHk9IuW+rui9r+mbhem7kSIgdGV4dC1hbmNob3I9Im1pZGRsZSIgZm9udC1zaXplPSIxM3B4IiB3aWR0aD0iNzBweCIgZmlsbD0iIzMyMzIzMiIgZm9udC13ZWlnaHQ9IjQwMCIgYWxpZ249Im1pZGRsZSIgbGluZWhlaWdodD0iMTI1JSIgYW5jaG9yPSJtaWRkbGUiIGZhbWlseT0i5b6u6L2v6ZuF6buRIiBzaXplPSIxM3B4IiB3ZWlnaHQ9IjQwMCIgZm9udC1zdHlsZT0iIiBvcGFjaXR5PSIxIiB5PSIyNS4zNzUiIHRyYW5zZm9ybT0icm90YXRlKDApIj48dHNwYW4gaWQ9IlN2Z2pzVHNwYW4xMjAyIiBkeT0iMTYiIHg9IjQ1Ij48dHNwYW4gaWQ9IlN2Z2pzVHNwYW4xMjAzIiBzdHlsZT0idGV4dC1kZWNvcmF0aW9uOjsiPmNsb3NlPzwvdHNwYW4+PC90c3Bhbj48L3RleHQ+PC9nPjwvZz48ZyBpZD0iU3ZnanNHMTIwNCI+PHBhdGggaWQ9IlN2Z2pzUGF0aDEyMDUiIGQ9Ik0xMzc0IDQwMUwxNDUyIDQwMUwxNDUyIDQ1MyIgc3Ryb2tlPSIjMzIzMjMyIiBzdHJva2Utd2lkdGg9IjIiIGZpbGw9Im5vbmUiIG1hcmtlci1lbmQ9InVybCgjU3ZnanNNYXJrZXIxMjA2KSIvPjxyZWN0IGlkPSJTdmdqc1JlY3QxMjA4IiB3aWR0aD0iMTMiIGhlaWdodD0iMTYiIHg9IjE0MzIuNSIgeT0iMzkzIiBmaWxsPSIjZmZmZmZmIi8+PHRleHQgaWQ9IlN2Z2pzVGV4dDEyMDkiIGZvbnQtZmFtaWx5PSLlvq7ova/pm4Xpu5EiIHRleHQtYW5jaG9yPSJtaWRkbGUiIGZvbnQtc2l6ZT0iMTNweCIgd2lkdGg9IjEzcHgiIGZpbGw9IiMzMjMyMzIiIGZvbnQtd2VpZ2h0PSI0MDAiIGFsaWduPSJ0b3AiIGxpbmVoZWlnaHQ9IjE2cHgiIGFuY2hvcj0ibWlkZGxlIiBmYW1pbHk9IuW+rui9r+mbhem7kSIgc2l6ZT0iMTNweCIgd2VpZ2h0PSI0MDAiIGZvbnQtc3R5bGU9IiIgb3BhY2l0eT0iMSIgeT0iMzkxLjM3NSIgdHJhbnNmb3JtPSJyb3RhdGUoMCkiPjx0c3BhbiBpZD0iU3ZnanNUc3BhbjEyMTAiIGR5PSIxNiIgeD0iMTQzOSI+PHRzcGFuIGlkPSJTdmdqc1RzcGFuMTIxMSIgc3R5bGU9InRleHQtZGVjb3JhdGlvbjo7Ij7lkKY8L3RzcGFuPjwvdHNwYW4+PC90ZXh0PjwvZz48ZyBpZD0iU3ZnanNHMTIxMiIgdHJhbnNmb3JtPSJ0cmFuc2xhdGUoMTQwMiw0NTMpIj48cGF0aCBpZD0iU3ZnanNQYXRoMTIxMyIgZD0iTSAwIDBMIDEwMCAwTCAxMDAgNzBMIDAgNzBaIiBzdHJva2U9InJnYmEoNTAsNTAsNTAsMSkiIHN0cm9rZS13aWR0aD0iMiIgZmlsbC1vcGFjaXR5PSIxIiBmaWxsPSIjZmZmZmZmIi8+PGcgaWQ9IlN2Z2pzRzEyMTQiPjx0ZXh0IGlkPSJTdmdqc1RleHQxMjE1IiBmb250LWZhbWlseT0i5b6u6L2v6ZuF6buRIiB0ZXh0LWFuY2hvcj0ibWlkZGxlIiBmb250LXNpemU9IjEzcHgiIHdpZHRoPSI4MHB4IiBmaWxsPSIjMzIzMjMyIiBmb250LXdlaWdodD0iNDAwIiBhbGlnbj0ibWlkZGxlIiBsaW5laGVpZ2h0PSIxMjUlIiBhbmNob3I9Im1pZGRsZSIgZmFtaWx5PSLlvq7ova/pm4Xpu5EiIHNpemU9IjEzcHgiIHdlaWdodD0iNDAwIiBmb250LXN0eWxlPSIiIG9wYWNpdHk9IjEiIHk9IjI1LjM3NSIgdHJhbnNmb3JtPSJyb3RhdGUoMCkiPjx0c3BhbiBpZD0iU3ZnanNUc3BhbjEyMTYiIGR5PSIxNiIgeD0iNTAiPjx0c3BhbiBpZD0iU3ZnanNUc3BhbjEyMTciIHN0eWxlPSJ0ZXh0LWRlY29yYXRpb246OyI+ZXZlbnRzKCk8L3RzcGFuPjwvdHNwYW4+PC90ZXh0PjwvZz48L2c+PGcgaWQ9IlN2Z2pzRzEyMTgiIHRyYW5zZm9ybT0idHJhbnNsYXRlKDExNjMsNDU2KSI+PHBhdGggaWQ9IlN2Z2pzUGF0aDEyMTkiIGQ9Ik0gMCAwTCAxMDAgMEwgMTAwIDcwTCAwIDcwWiIgc3Ryb2tlPSJyZ2JhKDUwLDUwLDUwLDEpIiBzdHJva2Utd2lkdGg9IjIiIGZpbGwtb3BhY2l0eT0iMSIgZmlsbD0iI2ZmZmZmZiIvPjxnIGlkPSJTdmdqc0cxMjIwIj48dGV4dCBpZD0iU3ZnanNUZXh0MTIyMSIgZm9udC1mYW1pbHk9IuW+rui9r+mbhem7kSIgdGV4dC1hbmNob3I9Im1pZGRsZSIgZm9udC1zaXplPSIxM3B4IiB3aWR0aD0iODBweCIgZmlsbD0iIzMyMzIzMiIgZm9udC13ZWlnaHQ9IjQwMCIgYWxpZ249Im1pZGRsZSIgbGluZWhlaWdodD0iMTI1JSIgYW5jaG9yPSJtaWRkbGUiIGZhbWlseT0i5b6u6L2v6ZuF6buRIiBzaXplPSIxM3B4IiB3ZWlnaHQ9IjQwMCIgZm9udC1zdHlsZT0iIiBvcGFjaXR5PSIxIiB5PSIyNS4zNzUiIHRyYW5zZm9ybT0icm90YXRlKDApIj48dHNwYW4gaWQ9IlN2Z2pzVHNwYW4xMjIyIiBkeT0iMTYiIHg9IjUwIj48dHNwYW4gaWQ9IlN2Z2pzVHNwYW4xMjIzIiBzdHlsZT0idGV4dC1kZWNvcmF0aW9uOjsiPmV2ZW50cygpPC90c3Bhbj48L3RzcGFuPjwvdGV4dD48L2c+PC9nPjxnIGlkPSJTdmdqc0cxMjI0Ij48cGF0aCBpZD0iU3ZnanNQYXRoMTIyNSIgZD0iTTEyODQgNDAxTDEyMTMgNDAxTDEyMTMgNDU2IiBzdHJva2U9IiMzMjMyMzIiIHN0cm9rZS13aWR0aD0iMiIgZmlsbD0ibm9uZSIgbWFya2VyLWVuZD0idXJsKCNTdmdqc01hcmtlcjEyMjYpIi8+PHJlY3QgaWQ9IlN2Z2pzUmVjdDEyMjgiIHdpZHRoPSIxMyIgaGVpZ2h0PSIxNiIgeD0iMTIxNC41IiB5PSIzOTMiIGZpbGw9IiNmZmZmZmYiLz48dGV4dCBpZD0iU3ZnanNUZXh0MTIyOSIgZm9udC1mYW1pbHk9IuW+rui9r+mbhem7kSIgdGV4dC1hbmNob3I9Im1pZGRsZSIgZm9udC1zaXplPSIxM3B4IiB3aWR0aD0iMTNweCIgZmlsbD0iIzMyMzIzMiIgZm9udC13ZWlnaHQ9IjQwMCIgYWxpZ249InRvcCIgbGluZWhlaWdodD0iMTZweCIgYW5jaG9yPSJtaWRkbGUiIGZhbWlseT0i5b6u6L2v6ZuF6buRIiBzaXplPSIxM3B4IiB3ZWlnaHQ9IjQwMCIgZm9udC1zdHlsZT0iIiBvcGFjaXR5PSIxIiB5PSIzOTEuMzc1IiB0cmFuc2Zvcm09InJvdGF0ZSgwKSI+PHRzcGFuIGlkPSJTdmdqc1RzcGFuMTIzMCIgZHk9IjE2IiB4PSIxMjIxIj48dHNwYW4gaWQ9IlN2Z2pzVHNwYW4xMjMxIiBzdHlsZT0idGV4dC1kZWNvcmF0aW9uOjsiPuaYrzwvdHNwYW4+PC90c3Bhbj48L3RleHQ+PC9nPjxnIGlkPSJTdmdqc0cxMjMyIj48cGF0aCBpZD0iU3ZnanNQYXRoMTIzMyIgZD0iTTEyMTMgNTI2TDEyMTMgNTUxTDEyMTMgNTUxTDEyMTMgNTc2IiBzdHJva2U9IiMzMjMyMzIiIHN0cm9rZS13aWR0aD0iMiIgZmlsbD0ibm9uZSIgbWFya2VyLWVuZD0idXJsKCNTdmdqc01hcmtlcjEyMzQpIi8+PC9nPjxnIGlkPSJTdmdqc0cxMjM2IiB0cmFuc2Zvcm09InRyYW5zbGF0ZSgxMTYzLDU3NikiPjxwYXRoIGlkPSJTdmdqc1BhdGgxMjM3IiBkPSJNIDAgMEwgMTAwIDBMIDEwMCA3MEwgMCA3MFoiIHN0cm9rZT0icmdiYSg1MCw1MCw1MCwxKSIgc3Ryb2tlLXdpZHRoPSIyIiBmaWxsLW9wYWNpdHk9IjEiIGZpbGw9IiNmZmZmZmYiLz48ZyBpZD0iU3ZnanNHMTIzOCI+PHRleHQgaWQ9IlN2Z2pzVGV4dDEyMzkiIGZvbnQtZmFtaWx5PSLlvq7ova/pm4Xpu5EiIHRleHQtYW5jaG9yPSJtaWRkbGUiIGZvbnQtc2l6ZT0iMTNweCIgd2lkdGg9IjgwcHgiIGZpbGw9IiMzMjMyMzIiIGZvbnQtd2VpZ2h0PSI0MDAiIGFsaWduPSJtaWRkbGUiIGxpbmVoZWlnaHQ9IjEyNSUiIGFuY2hvcj0ibWlkZGxlIiBmYW1pbHk9IuW+rui9r+mbhem7kSIgc2l6ZT0iMTNweCIgd2VpZ2h0PSI0MDAiIGZvbnQtc3R5bGU9IiIgb3BhY2l0eT0iMSIgeT0iOS4zNzUiIHRyYW5zZm9ybT0icm90YXRlKDApIj48dHNwYW4gaWQ9IlN2Z2pzVHNwYW4xMjQwIiBkeT0iMTYiIHg9IjUwIj48dHNwYW4gaWQ9IlN2Z2pzVHNwYW4xMjQxIiBzdHlsZT0idGV4dC1kZWNvcmF0aW9uOjsiPuWFs+mXrTwvdHNwYW4+PC90c3Bhbj48dHNwYW4gaWQ9IlN2Z2pzVHNwYW4xMjQyIiBkeT0iMTYiIHg9IjUwIj48dHNwYW4gaWQ9IlN2Z2pzVHNwYW4xMjQzIiBzdHlsZT0idGV4dC1kZWNvcmF0aW9uOjsiPlNlbGVjdG9y77yM6LezPC90c3Bhbj48L3RzcGFuPjx0c3BhbiBpZD0iU3ZnanNUc3BhbjEyNDQiIGR5PSIxNiIgeD0iNTAiPjx0c3BhbiBpZD0iU3ZnanNUc3BhbjEyNDUiIHN0eWxlPSJ0ZXh0LWRlY29yYXRpb246OyI+5Ye65b6q546vPC90c3Bhbj48L3RzcGFuPjwvdGV4dD48L2c+PC9nPjxnIGlkPSJTdmdqc0cxMjQ2IiB0cmFuc2Zvcm09InRyYW5zbGF0ZSgxMjcxLDQ0OCkiPjxwYXRoIGlkPSJTdmdqc1BhdGgxMjQ3IiBkPSJNIDAgMEwgMTA3IDBMIDEyMyAxNkwgMTIzIDE4MUwgMCAxODFMIDAgMFoiIHN0cm9rZT0ibm9uZSIgZmlsbC1vcGFjaXR5PSIxIiBmaWxsPSIjZmZmZmFhIi8+PHBhdGggaWQ9IlN2Z2pzUGF0aDEyNDgiIGQ9Ik0gMTA3IDBMIDEwNyAxNkwgMTIzIDE2WiIgc3Ryb2tlPSJub25lIiBmaWxsLW9wYWNpdHk9IjEiIGZpbGw9IiNjZGNkY2QiLz48cGF0aCBpZD0iU3ZnanNQYXRoMTI0OSIgZD0iTSAwIDBMIDEwNyAwTCAxMjMgMTZMIDEyMyAxODFMIDAgMTgxTCAwIDBaIiBzdHJva2U9Im5vbmUiIGZpbGw9Im5vbmUiLz48ZyBpZD0iU3ZnanNHMTI1MCI+PHRleHQgaWQ9IlN2Z2pzVGV4dDEyNTEiIGZvbnQtZmFtaWx5PSLlvq7ova/pm4Xpu5EiIHRleHQtYW5jaG9yPSJzdGFydCIgZm9udC1zaXplPSIxM3B4IiB3aWR0aD0iMTAzcHgiIGZpbGw9IiMzMjMyMzIiIGZvbnQtd2VpZ2h0PSI0MDAiIGFsaWduPSJtaWRkbGUiIGxpbmVoZWlnaHQ9IjEyNSUiIGFuY2hvcj0ic3RhcnQiIGZhbWlseT0i5b6u6L2v6ZuF6buRIiBzaXplPSIxM3B4IiB3ZWlnaHQ9IjQwMCIgZm9udC1zdHlsZT0iIiBvcGFjaXR5PSIxIiB5PSI4Ljg3NSIgdHJhbnNmb3JtPSJyb3RhdGUoMCkiPjx0c3BhbiBpZD0iU3ZnanNUc3BhbjEyNTIiIGR5PSIxNiIgeD0iMTAiPjx0c3BhbiBpZD0iU3ZnanNUc3BhbjEyNTMiIHN0eWxlPSJ0ZXh0LWRlY29yYXRpb246OyI+ZXZlbnRzKCnkvJrlj5blh7o8L3RzcGFuPjwvdHNwYW4+PHRzcGFuIGlkPSJTdmdqc1RzcGFuMTI1NCIgZHk9IjE2IiB4PSIxMCI+PHRzcGFuIGlkPSJTdmdqc1RzcGFuMTI1NSIgc3R5bGU9InRleHQtZGVjb3JhdGlvbjo7Ij5ldmVudHPlkIzmraXpmJ/liJc8L3RzcGFuPjwvdHNwYW4+PHRzcGFuIGlkPSJTdmdqc1RzcGFuMTI1NiIgZHk9IjE2IiB4PSIxMCI+PHRzcGFuIGlkPSJTdmdqc1RzcGFuMTI1NyIgc3R5bGU9InRleHQtZGVjb3JhdGlvbjo7Ij7kuK3nmoQ8L3RzcGFuPjwvdHNwYW4+PHRzcGFuIGlkPSJTdmdqc1RzcGFuMTI1OCIgZHk9IjE2IiB4PSIxMCI+PHRzcGFuIGlkPSJTdmdqc1RzcGFuMTI1OSIgc3R5bGU9InRleHQtZGVjb3JhdGlvbjo7Ij5Qb2xsZXJFdmVudO+8jOW5tjwvdHNwYW4+PC90c3Bhbj48dHNwYW4gaWQ9IlN2Z2pzVHNwYW4xMjYwIiBkeT0iMTYiIHg9IjEwIj48dHNwYW4gaWQ9IlN2Z2pzVHNwYW4xMjYxIiBzdHlsZT0idGV4dC1kZWNvcmF0aW9uOjsiPuiwg+eUqHJ1buaWueazleOAgjwvdHNwYW4+PC90c3Bhbj48dHNwYW4gaWQ9IlN2Z2pzVHNwYW4xMjYyIiBkeT0iMTYiIHg9IjEwIj48dHNwYW4gaWQ9IlN2Z2pzVHNwYW4xMjYzIiBzdHlsZT0idGV4dC1kZWNvcmF0aW9uOjsiPiZsdDsvYnImZ3Q7Jmx0Oy9iciZndDtydW48L3RzcGFuPjwvdHNwYW4+PHRzcGFuIGlkPSJTdmdqc1RzcGFuMTI2NCIgZHk9IjE2IiB4PSIxMCI+PHRzcGFuIGlkPSJTdmdqc1RzcGFuMTI2NSIgc3R5bGU9InRleHQtZGVjb3JhdGlvbjo7Ij7mlrnms5XkvJrlsIY8L3RzcGFuPjwvdHNwYW4+PHRzcGFuIGlkPSJTdmdqc1RzcGFuMTI2NiIgZHk9IjE2IiB4PSIxMCI+PHRzcGFuIGlkPSJTdmdqc1RzcGFuMTI2NyIgc3R5bGU9InRleHQtZGVjb3JhdGlvbjo7Ij5Tb2NrZXRDaGFubmVsPC90c3Bhbj48L3RzcGFuPjx0c3BhbiBpZD0iU3ZnanNUc3BhbjEyNjgiIGR5PSIxNiIgeD0iMTAiPjx0c3BhbiBpZD0iU3ZnanNUc3BhbjEyNjkiIHN0eWxlPSJ0ZXh0LWRlY29yYXRpb246OyI+5rOo5YaM5YiwU2VsZWN0b3LkuIo8L3RzcGFuPjwvdHNwYW4+PHRzcGFuIGlkPSJTdmdqc1RzcGFuMTI3MCIgZHk9IjE2IiB4PSIxMCI+PHRzcGFuIGlkPSJTdmdqc1RzcGFuMTI3MSIgc3R5bGU9InRleHQtZGVjb3JhdGlvbjo7Ij7nmoRPUF9SRUFEPC90c3Bhbj48L3RzcGFuPjwvdGV4dD48L2c+PC9nPjxnIGlkPSJTdmdqc0cxMjcyIj48cGF0aCBpZD0iU3ZnanNQYXRoMTI3MyIgZD0iTTI1MiAyNDNMMjUyIDI3M0wxNzYgMjczTDE3NiAyMDhMMTk3IDIwOCIgc3Ryb2tlPSIjMzIzMjMyIiBzdHJva2Utd2lkdGg9IjIiIGZpbGw9Im5vbmUiIG1hcmtlci1lbmQ9InVybCgjU3ZnanNNYXJrZXIxMjc0KSIvPjxyZWN0IGlkPSJTdmdqc1JlY3QxMjc2IiB3aWR0aD0iOTYiIGhlaWdodD0iMTYiIHg9IjEzOCIgeT0iMjY1IiBmaWxsPSIjZmZmZmZmIi8+PHRleHQgaWQ9IlN2Z2pzVGV4dDEyNzciIGZvbnQtZmFtaWx5PSLlvq7ova/pm4Xpu5EiIHRleHQtYW5jaG9yPSJtaWRkbGUiIGZvbnQtc2l6ZT0iMTNweCIgd2lkdGg9Ijk2cHgiIGZpbGw9IiMzMjMyMzIiIGZvbnQtd2VpZ2h0PSI0MDAiIGFsaWduPSJ0b3AiIGxpbmVoZWlnaHQ9IjE2cHgiIGFuY2hvcj0ibWlkZGxlIiBmYW1pbHk9IuW+rui9r+mbhem7kSIgc2l6ZT0iMTNweCIgd2VpZ2h0PSI0MDAiIGZvbnQtc3R5bGU9IiIgb3BhY2l0eT0iMSIgeT0iMjYzLjM3NSIgdHJhbnNmb3JtPSJyb3RhdGUoMCkiPjx0c3BhbiBpZD0iU3ZnanNUc3BhbjEyNzgiIGR5PSIxNiIgeD0iMTg2Ij48dHNwYW4gaWQ9IlN2Z2pzVHNwYW4xMjc5IiBzdHlsZT0idGV4dC1kZWNvcmF0aW9uOjsiPuaYr++8jHNsZWVwIDUwbXM8L3RzcGFuPjwvdHNwYW4+PC90ZXh0PjwvZz48ZyBpZD0iU3ZnanNHMTI4MCI+PHBhdGggaWQ9IlN2Z2pzUGF0aDEyODEiIGQ9Ik0xNDUyIDUyM0wxNDUyIDU0NUwxNDUyIDU0NUwxNDUyIDU2NyIgc3Ryb2tlPSIjMzIzMjMyIiBzdHJva2Utd2lkdGg9IjIiIGZpbGw9Im5vbmUiIG1hcmtlci1lbmQ9InVybCgjU3ZnanNNYXJrZXIxMjgyKSIvPjwvZz48ZyBpZD0iU3ZnanNHMTI4NCIgdHJhbnNmb3JtPSJ0cmFuc2xhdGUoMTM5Mi41LDU2NykiPjxwYXRoIGlkPSJTdmdqc1BhdGgxMjg1IiBkPSJNIDAgMEwgMTE5IDBMIDExOSA3MEwgMCA3MFoiIHN0cm9rZT0icmdiYSg1MCw1MCw1MCwxKSIgc3Ryb2tlLXdpZHRoPSIyIiBmaWxsLW9wYWNpdHk9IjEiIGZpbGw9IiNmZmZmZmYiLz48ZyBpZD0iU3ZnanNHMTI4NiI+PHRleHQgaWQ9IlN2Z2pzVGV4dDEyODciIGZvbnQtZmFtaWx5PSLlvq7ova/pm4Xpu5EiIHRleHQtYW5jaG9yPSJtaWRkbGUiIGZvbnQtc2l6ZT0iMTNweCIgd2lkdGg9Ijk5cHgiIGZpbGw9IiMzMjMyMzIiIGZvbnQtd2VpZ2h0PSI0MDAiIGFsaWduPSJtaWRkbGUiIGxpbmVoZWlnaHQ9IjEyNSUiIGFuY2hvcj0ibWlkZGxlIiBmYW1pbHk9IuW+rui9r+mbhem7kSIgc2l6ZT0iMTNweCIgd2VpZ2h0PSI0MDAiIGZvbnQtc3R5bGU9IiIgb3BhY2l0eT0iMSIgeT0iMjUuMzc1IiB0cmFuc2Zvcm09InJvdGF0ZSgwKSI+PHRzcGFuIGlkPSJTdmdqc1RzcGFuMTI4OCIgZHk9IjE2IiB4PSI1OS41Ij48dHNwYW4gaWQ9IlN2Z2pzVHNwYW4xMjg5IiBzdHlsZT0idGV4dC1kZWNvcmF0aW9uOjsiPlNlbGVjdG9yLnNlbGVjdCgpPC90c3Bhbj48L3RzcGFuPjwvdGV4dD48L2c+PC9nPjxnIGlkPSJTdmdqc0cxMjkwIj48cGF0aCBpZD0iU3ZnanNQYXRoMTI5MSIgZD0iTTE0NTIgNjM3TDE0NTIgNjYxTDE0NTIgNjYxTDE0NTIgNjg1IiBzdHJva2U9IiMzMjMyMzIiIHN0cm9rZS13aWR0aD0iMiIgZmlsbD0ibm9uZSIgbWFya2VyLWVuZD0idXJsKCNTdmdqc01hcmtlcjEyOTIpIi8+PC9nPjxnIGlkPSJTdmdqc0cxMjk0IiB0cmFuc2Zvcm09InRyYW5zbGF0ZSgxNDA0LjUsNjg1KSI+PHBhdGggaWQ9IlN2Z2pzUGF0aDEyOTUiIGQ9Ik0gMCAzNkwgNDcuNSAwTCA5NSAzNkwgNDcuNSA3MkwgMCAzNloiIHN0cm9rZT0icmdiYSg1MCw1MCw1MCwxKSIgc3Ryb2tlLXdpZHRoPSIyIiBmaWxsLW9wYWNpdHk9IjEiIGZpbGw9IiNmZmZmZmYiLz48ZyBpZD0iU3ZnanNHMTI5NiI+PHRleHQgaWQ9IlN2Z2pzVGV4dDEyOTciIGZvbnQtZmFtaWx5PSLlvq7ova/pm4Xpu5EiIHRleHQtYW5jaG9yPSJtaWRkbGUiIGZvbnQtc2l6ZT0iMTNweCIgd2lkdGg9Ijc1cHgiIGZpbGw9IiMzMjMyMzIiIGZvbnQtd2VpZ2h0PSI0MDAiIGFsaWduPSJtaWRkbGUiIGxpbmVoZWlnaHQ9IjEyNSUiIGFuY2hvcj0ibWlkZGxlIiBmYW1pbHk9IuW+rui9r+mbhem7kSIgc2l6ZT0iMTNweCIgd2VpZ2h0PSI0MDAiIGZvbnQtc3R5bGU9IiIgb3BhY2l0eT0iMSIgeT0iMjYuMzc1IiB0cmFuc2Zvcm09InJvdGF0ZSgwKSI+PHRzcGFuIGlkPSJTdmdqc1RzcGFuMTI5OCIgZHk9IjE2IiB4PSI0Ny41Ij48dHNwYW4gaWQ9IlN2Z2pzVHNwYW4xMjk5IiBzdHlsZT0idGV4dC1kZWNvcmF0aW9uOjsiPmtleUNvdW50PzA8L3RzcGFuPjwvdHNwYW4+PC90ZXh0PjwvZz48L2c+PGcgaWQ9IlN2Z2pzRzEzMDAiPjxwYXRoIGlkPSJTdmdqc1BhdGgxMzAxIiBkPSJNMTQ1MiA3NTdMMTQ1MiA3NzlMMTQ1MiA3NzlMMTQ1MiA4MDEiIHN0cm9rZT0iIzMyMzIzMiIgc3Ryb2tlLXdpZHRoPSIyIiBmaWxsPSJub25lIiBtYXJrZXItZW5kPSJ1cmwoI1N2Z2pzTWFya2VyMTMwMikiLz48cmVjdCBpZD0iU3ZnanNSZWN0MTMwNCIgd2lkdGg9IjEzIiBoZWlnaHQ9IjE2IiB4PSIxNDQ1LjUiIHk9Ijc3MSIgZmlsbD0iI2ZmZmZmZiIvPjx0ZXh0IGlkPSJTdmdqc1RleHQxMzA1IiBmb250LWZhbWlseT0i5b6u6L2v6ZuF6buRIiB0ZXh0LWFuY2hvcj0ibWlkZGxlIiBmb250LXNpemU9IjEzcHgiIHdpZHRoPSIxM3B4IiBmaWxsPSIjMzIzMjMyIiBmb250LXdlaWdodD0iNDAwIiBhbGlnbj0idG9wIiBsaW5laGVpZ2h0PSIxNnB4IiBhbmNob3I9Im1pZGRsZSIgZmFtaWx5PSLlvq7ova/pm4Xpu5EiIHNpemU9IjEzcHgiIHdlaWdodD0iNDAwIiBmb250LXN0eWxlPSIiIG9wYWNpdHk9IjEiIHk9Ijc2OS4zNzUiIHRyYW5zZm9ybT0icm90YXRlKDApIj48dHNwYW4gaWQ9IlN2Z2pzVHNwYW4xMzA2IiBkeT0iMTYiIHg9IjE0NTIiPjx0c3BhbiBpZD0iU3ZnanNUc3BhbjEzMDciIHN0eWxlPSJ0ZXh0LWRlY29yYXRpb246OyI+5pivPC90c3Bhbj48L3RzcGFuPjwvdGV4dD48L2c+PGcgaWQ9IlN2Z2pzRzEzMDgiIHRyYW5zZm9ybT0idHJhbnNsYXRlKDEzNzksODAxKSI+PHBhdGggaWQ9IlN2Z2pzUGF0aDEzMDkiIGQ9Ik0gMCAwTCAxNDYgMEwgMTQ2IDczTCAwIDczWiIgc3Ryb2tlPSJyZ2JhKDUwLDUwLDUwLDEpIiBzdHJva2Utd2lkdGg9IjIiIGZpbGwtb3BhY2l0eT0iMSIgZmlsbD0iI2ZmZmZmZiIvPjxnIGlkPSJTdmdqc0cxMzEwIj48dGV4dCBpZD0iU3ZnanNUZXh0MTMxMSIgZm9udC1mYW1pbHk9IuW+rui9r+mbhem7kSIgdGV4dC1hbmNob3I9Im1pZGRsZSIgZm9udC1zaXplPSIxM3B4IiB3aWR0aD0iMTI2cHgiIGZpbGw9IiMzMjMyMzIiIGZvbnQtd2VpZ2h0PSI0MDAiIGFsaWduPSJtaWRkbGUiIGxpbmVoZWlnaHQ9IjEyNSUiIGFuY2hvcj0ibWlkZGxlIiBmYW1pbHk9IuW+rui9r+mbhem7kSIgc2l6ZT0iMTNweCIgd2VpZ2h0PSI0MDAiIGZvbnQtc3R5bGU9IiIgb3BhY2l0eT0iMSIgeT0iMTAuODc1IiB0cmFuc2Zvcm09InJvdGF0ZSgwKSI+PHRzcGFuIGlkPSJTdmdqc1RzcGFuMTMxMiIgZHk9IjE2IiB4PSI3MyI+PHRzcGFuIGlkPSJTdmdqc1RzcGFuMTMxMyIgc3R5bGU9InRleHQtZGVjb3JhdGlvbjo7Ij5wcm9jZXNzS2V5KCkmbHQ7L2JyJmd0OzwvdHNwYW4+PC90c3Bhbj48dHNwYW4gaWQ9IlN2Z2pzVHNwYW4xMzE0IiBkeT0iMTYiIHg9IjczIj48dHNwYW4gaWQ9IlN2Z2pzVHNwYW4xMzE1IiBzdHlsZT0idGV4dC1kZWNvcmF0aW9uOjsiPuWkhOeQhnNlbGVjdGlvbktleeWSjDwvdHNwYW4+PC90c3Bhbj48dHNwYW4gaWQ9IlN2Z2pzVHNwYW4xMzE2IiBkeT0iMTYiIHg9IjczIj48dHNwYW4gaWQ9IlN2Z2pzVHNwYW4xMzE3IiBzdHlsZT0idGV4dC1kZWNvcmF0aW9uOjsiPk5pb1NvY2tldFdyYXBwZXI8L3RzcGFuPjwvdHNwYW4+PC90ZXh0PjwvZz48L2c+PGcgaWQ9IlN2Z2pzRzEzMTgiPjxwYXRoIGlkPSJTdmdqc1BhdGgxMzE5IiBkPSJNMTQ1MiA4NzRMMTQ1MiA4ODlMMTQ1MiA4ODlMMTQ1MiA5MDQiIHN0cm9rZT0iIzMyMzIzMiIgc3Ryb2tlLXdpZHRoPSIyIiBmaWxsPSJub25lIiBtYXJrZXItZW5kPSJ1cmwoI1N2Z2pzTWFya2VyMTMyMCkiLz48L2c+PGcgaWQ9IlN2Z2pzRzEzMjIiIHRyYW5zZm9ybT0idHJhbnNsYXRlKDE0MDcsOTA0KSI+PHBhdGggaWQ9IlN2Z2pzUGF0aDEzMjMiIGQ9Ik0gMCAzNUwgNDUgMEwgOTAgMzVMIDQ1IDcwTCAwIDM1WiIgc3Ryb2tlPSJyZ2JhKDUwLDUwLDUwLDEpIiBzdHJva2Utd2lkdGg9IjIiIGZpbGwtb3BhY2l0eT0iMSIgZmlsbD0iI2ZmZmZmZiIvPjxnIGlkPSJTdmdqc0cxMzI0Ij48dGV4dCBpZD0iU3ZnanNUZXh0MTMyNSIgZm9udC1mYW1pbHk9IuW+rui9r+mbhem7kSIgdGV4dC1hbmNob3I9Im1pZGRsZSIgZm9udC1zaXplPSIxM3B4IiB3aWR0aD0iNzBweCIgZmlsbD0iIzMyMzIzMiIgZm9udC13ZWlnaHQ9IjQwMCIgYWxpZ249Im1pZGRsZSIgbGluZWhlaWdodD0iMTI1JSIgYW5jaG9yPSJtaWRkbGUiIGZhbWlseT0i5b6u6L2v6ZuF6buRIiBzaXplPSIxM3B4IiB3ZWlnaHQ9IjQwMCIgZm9udC1zdHlsZT0iIiBvcGFjaXR5PSIxIiB5PSIyNS4zNzUiIHRyYW5zZm9ybT0icm90YXRlKDApIj48dHNwYW4gaWQ9IlN2Z2pzVHNwYW4xMzI2IiBkeT0iMTYiIHg9IjQ1Ij48dHNwYW4gaWQ9IlN2Z2pzVHNwYW4xMzI3IiBzdHlsZT0idGV4dC1kZWNvcmF0aW9uOjsiPmNsb3NlPzwvdHNwYW4+PC90c3Bhbj48L3RleHQ+PC9nPjwvZz48ZyBpZD0iU3ZnanNHMTMyOCI+PHBhdGggaWQ9IlN2Z2pzUGF0aDEzMjkiIGQ9Ik0xNDA3IDkzOUwxMzUyLjUgOTM5TDEzNTIuNSA5MzlMMTI5OCA5MzkiIHN0cm9rZT0iIzMyMzIzMiIgc3Ryb2tlLXdpZHRoPSIyIiBmaWxsPSJub25lIiBtYXJrZXItZW5kPSJ1cmwoI1N2Z2pzTWFya2VyMTMzMCkiLz48cmVjdCBpZD0iU3ZnanNSZWN0MTMzMiIgd2lkdGg9IjEzIiBoZWlnaHQ9IjE2IiB4PSIxMzQ2IiB5PSI5MzEiIGZpbGw9IiNmZmZmZmYiLz48dGV4dCBpZD0iU3ZnanNUZXh0MTMzMyIgZm9udC1mYW1pbHk9IuW+rui9r+mbhem7kSIgdGV4dC1hbmNob3I9Im1pZGRsZSIgZm9udC1zaXplPSIxM3B4IiB3aWR0aD0iMTNweCIgZmlsbD0iIzMyMzIzMiIgZm9udC13ZWlnaHQ9IjQwMCIgYWxpZ249InRvcCIgbGluZWhlaWdodD0iMTZweCIgYW5jaG9yPSJtaWRkbGUiIGZhbWlseT0i5b6u6L2v6ZuF6buRIiBzaXplPSIxM3B4IiB3ZWlnaHQ9IjQwMCIgZm9udC1zdHlsZT0iIiBvcGFjaXR5PSIxIiB5PSI5MjkuMzc1IiB0cmFuc2Zvcm09InJvdGF0ZSgwKSI+PHRzcGFuIGlkPSJTdmdqc1RzcGFuMTMzNCIgZHk9IjE2IiB4PSIxMzUyLjUiPjx0c3BhbiBpZD0iU3ZnanNUc3BhbjEzMzUiIHN0eWxlPSJ0ZXh0LWRlY29yYXRpb246OyI+5pivPC90c3Bhbj48L3RzcGFuPjwvdGV4dD48L2c+PGcgaWQ9IlN2Z2pzRzEzMzYiIHRyYW5zZm9ybT0idHJhbnNsYXRlKDExODEsOTA0KSI+PHBhdGggaWQ9IlN2Z2pzUGF0aDEzMzciIGQ9Ik0gMCAwTCAxMTcgMEwgMTE3IDcwTCAwIDcwWiIgc3Ryb2tlPSJyZ2JhKDUwLDUwLDUwLDEpIiBzdHJva2Utd2lkdGg9IjIiIGZpbGwtb3BhY2l0eT0iMSIgZmlsbD0iI2ZmZmZmZiIvPjxnIGlkPSJTdmdqc0cxMzM4Ij48dGV4dCBpZD0iU3ZnanNUZXh0MTMzOSIgZm9udC1mYW1pbHk9IuW+rui9r+mbhem7kSIgdGV4dC1hbmNob3I9Im1pZGRsZSIgZm9udC1zaXplPSIxM3B4IiB3aWR0aD0iOTdweCIgZmlsbD0iIzMyMzIzMiIgZm9udC13ZWlnaHQ9IjQwMCIgYWxpZ249Im1pZGRsZSIgbGluZWhlaWdodD0iMTI1JSIgYW5jaG9yPSJtaWRkbGUiIGZhbWlseT0i5b6u6L2v6ZuF6buRIiBzaXplPSIxM3B4IiB3ZWlnaHQ9IjQwMCIgZm9udC1zdHlsZT0iIiBvcGFjaXR5PSIxIiB5PSIyNS4zNzUiIHRyYW5zZm9ybT0icm90YXRlKDApIj48dHNwYW4gaWQ9IlN2Z2pzVHNwYW4xMzQwIiBkeT0iMTYiIHg9IjU4LjUiPjx0c3BhbiBpZD0iU3ZnanNUc3BhbjEzNDEiIHN0eWxlPSJ0ZXh0LWRlY29yYXRpb246OyI+Y2FuY2VsbGVkS2V5KCk8L3RzcGFuPjwvdHNwYW4+PC90ZXh0PjwvZz48L2c+PGcgaWQ9IlN2Z2pzRzEzNDIiPjxwYXRoIGlkPSJTdmdqc1BhdGgxMzQzIiBkPSJNMTQ5OS41IDcyMUwxNTI5LjUgNzIxTDE1MjkuNSAzNDRMMTMyOSAzNDRMMTMyOSAzNjYiIHN0cm9rZT0iIzMyMzIzMiIgc3Ryb2tlLXdpZHRoPSIyIiBmaWxsPSJub25lIiBtYXJrZXItZW5kPSJ1cmwoI1N2Z2pzTWFya2VyMTM0NCkiLz48cmVjdCBpZD0iU3ZnanNSZWN0MTM0NiIgd2lkdGg9IjEzIiBoZWlnaHQ9IjE2IiB4PSIxNTIzIiB5PSI0MjguMjUiIGZpbGw9IiNmZmZmZmYiLz48dGV4dCBpZD0iU3ZnanNUZXh0MTM0NyIgZm9udC1mYW1pbHk9IuW+rui9r+mbhem7kSIgdGV4dC1hbmNob3I9Im1pZGRsZSIgZm9udC1zaXplPSIxM3B4IiB3aWR0aD0iMTNweCIgZmlsbD0iIzMyMzIzMiIgZm9udC13ZWlnaHQ9IjQwMCIgYWxpZ249InRvcCIgbGluZWhlaWdodD0iMTZweCIgYW5jaG9yPSJtaWRkbGUiIGZhbWlseT0i5b6u6L2v6ZuF6buRIiBzaXplPSIxM3B4IiB3ZWlnaHQ9IjQwMCIgZm9udC1zdHlsZT0iIiBvcGFjaXR5PSIxIiB5PSI0MjYuNjI1IiB0cmFuc2Zvcm09InJvdGF0ZSgwKSI+PHRzcGFuIGlkPSJTdmdqc1RzcGFuMTM0OCIgZHk9IjE2IiB4PSIxNTI5LjUiPjx0c3BhbiBpZD0iU3ZnanNUc3BhbjEzNDkiIHN0eWxlPSJ0ZXh0LWRlY29yYXRpb246OyI+5ZCmPC90c3Bhbj48L3RzcGFuPjwvdGV4dD48L2c+PGcgaWQ9IlN2Z2pzRzEzNTAiPjxwYXRoIGlkPSJTdmdqc1BhdGgxMzUxIiBkPSJNMTQ1MiA5NzRMMTQ1MiA5OTYuNUwxNDUyIDk5Ni41TDE0NTIgMTAxOSIgc3Ryb2tlPSIjMzIzMjMyIiBzdHJva2Utd2lkdGg9IjIiIGZpbGw9Im5vbmUiIG1hcmtlci1lbmQ9InVybCgjU3ZnanNNYXJrZXIxMzUyKSIvPjxyZWN0IGlkPSJTdmdqc1JlY3QxMzU0IiB3aWR0aD0iMTMiIGhlaWdodD0iMTYiIHg9IjE0NDUuNSIgeT0iOTg4LjUiIGZpbGw9IiNmZmZmZmYiLz48dGV4dCBpZD0iU3ZnanNUZXh0MTM1NSIgZm9udC1mYW1pbHk9IuW+rui9r+mbhem7kSIgdGV4dC1hbmNob3I9Im1pZGRsZSIgZm9udC1zaXplPSIxM3B4IiB3aWR0aD0iMTNweCIgZmlsbD0iIzMyMzIzMiIgZm9udC13ZWlnaHQ9IjQwMCIgYWxpZ249InRvcCIgbGluZWhlaWdodD0iMTZweCIgYW5jaG9yPSJtaWRkbGUiIGZhbWlseT0i5b6u6L2v6ZuF6buRIiBzaXplPSIxM3B4IiB3ZWlnaHQ9IjQwMCIgZm9udC1zdHlsZT0iIiBvcGFjaXR5PSIxIiB5PSI5ODYuODc1IiB0cmFuc2Zvcm09InJvdGF0ZSgwKSI+PHRzcGFuIGlkPSJTdmdqc1RzcGFuMTM1NiIgZHk9IjE2IiB4PSIxNDUyIj48dHNwYW4gaWQ9IlN2Z2pzVHNwYW4xMzU3IiBzdHlsZT0idGV4dC1kZWNvcmF0aW9uOjsiPuWQpjwvdHNwYW4+PC90c3Bhbj48L3RleHQ+PC9nPjxnIGlkPSJTdmdqc0cxMzU4IiB0cmFuc2Zvcm09InRyYW5zbGF0ZSgxMzY3Ljc1LDEwMTkpIj48cGF0aCBpZD0iU3ZnanNQYXRoMTM1OSIgZD0iTSAwIDBMIDE2OC41IDBMIDE2OC41IDkxTCAwIDkxWiIgc3Ryb2tlPSJyZ2JhKDUwLDUwLDUwLDEpIiBzdHJva2Utd2lkdGg9IjIiIGZpbGwtb3BhY2l0eT0iMSIgZmlsbD0iI2ZmZmZmZiIvPjxnIGlkPSJTdmdqc0cxMzYwIj48dGV4dCBpZD0iU3ZnanNUZXh0MTM2MSIgZm9udC1mYW1pbHk9IuW+rui9r+mbhem7kSIgdGV4dC1hbmNob3I9InN0YXJ0IiBmb250LXNpemU9IjEzcHgiIHdpZHRoPSIxNDlweCIgZmlsbD0iIzMyMzIzMiIgZm9udC13ZWlnaHQ9IjQwMCIgYWxpZ249Im1pZGRsZSIgbGluZWhlaWdodD0iMTI1JSIgYW5jaG9yPSJzdGFydCIgZmFtaWx5PSLlvq7ova/pm4Xpu5EiIHNpemU9IjEzcHgiIHdlaWdodD0iNDAwIiBmb250LXN0eWxlPSIiIG9wYWNpdHk9IjEiIHk9IjMuODc1IiB0cmFuc2Zvcm09InJvdGF0ZSgwKSI+PHRzcGFuIGlkPSJTdmdqc1RzcGFuMTM2MiIgZHk9IjE2IiB4PSIxMCI+PHRzcGFuIGlkPSJTdmdqc1RzcGFuMTM2MyIgc3R5bGU9InRleHQtZGVjb3JhdGlvbjo7Ij7moLnmja7lr7nlupTnmoRTZWxlY3Rpb25LZXk8L3RzcGFuPjwvdHNwYW4+PHRzcGFuIGlkPSJTdmdqc1RzcGFuMTM2NCIgZHk9IjE2IiB4PSIxMCI+PHRzcGFuIGlkPSJTdmdqc1RzcGFuMTM2NSIgc3R5bGU9InRleHQtZGVjb3JhdGlvbjo7Ij7lpITnkIbov57mjqU8L3RzcGFuPjwvdHNwYW4+PHRzcGFuIGlkPSJTdmdqc1RzcGFuMTM2NiIgZHk9IjE2IiB4PSIxMCI+PHRzcGFuIGlkPSJTdmdqc1RzcGFuMTM2NyIgc3R5bGU9InRleHQtZGVjb3JhdGlvbjo7Ij4mbHQ7L2JyJmd0O3Byb2Nlc3NTb2NrZXQoKSw8L3RzcGFuPjwvdHNwYW4+PHRzcGFuIGlkPSJTdmdqc1RzcGFuMTM2OCIgZHk9IjE2IiB4PSIxMCI+PHRzcGFuIGlkPSJTdmdqc1RzcGFuMTM2OSIgc3R5bGU9InRleHQtZGVjb3JhdGlvbjo7Ij4mbHQ7L2JyJmd0O+WwgeijheaIkDwvdHNwYW4+PC90c3Bhbj48dHNwYW4gaWQ9IlN2Z2pzVHNwYW4xMzcwIiBkeT0iMTYiIHg9IjEwIj48dHNwYW4gaWQ9IlN2Z2pzVHNwYW4xMzcxIiBzdHlsZT0idGV4dC1kZWNvcmF0aW9uOjsiPlNvY2tldFByb2Nlc3NvcjwvdHNwYW4+PC90c3Bhbj48L3RleHQ+PC9nPjwvZz48ZyBpZD0iU3ZnanNHMTM3MiI+PHBhdGggaWQ9IlN2Z2pzUGF0aDEzNzMiIGQ9Ik0xNDUyIDExMTBMMTQ1MiAxMTI2LjVMMTQ1MiAxMTI2LjVMMTQ1MiAxMTQzIiBzdHJva2U9IiMzMjMyMzIiIHN0cm9rZS13aWR0aD0iMiIgZmlsbD0ibm9uZSIgbWFya2VyLWVuZD0idXJsKCNTdmdqc01hcmtlcjEzNzQpIi8+PC9nPjxnIGlkPSJTdmdqc0cxMzc2IiB0cmFuc2Zvcm09InRyYW5zbGF0ZSgxNDAyLDExNDMpIj48cGF0aCBpZD0iU3ZnanNQYXRoMTM3NyIgZD0iTSAwIDM1TCA1MCAwTCAxMDAgMzVMIDUwIDcwTCAwIDM1WiIgc3Ryb2tlPSJyZ2JhKDUwLDUwLDUwLDEpIiBzdHJva2Utd2lkdGg9IjIiIGZpbGwtb3BhY2l0eT0iMSIgZmlsbD0iI2ZmZmZmZiIvPjxnIGlkPSJTdmdqc0cxMzc4Ij48dGV4dCBpZD0iU3ZnanNUZXh0MTM3OSIgZm9udC1mYW1pbHk9IuW+rui9r+mbhem7kSIgdGV4dC1hbmNob3I9Im1pZGRsZSIgZm9udC1zaXplPSIxM3B4IiB3aWR0aD0iODBweCIgZmlsbD0iIzMyMzIzMiIgZm9udC13ZWlnaHQ9IjQwMCIgYWxpZ249Im1pZGRsZSIgbGluZWhlaWdodD0iMTI1JSIgYW5jaG9yPSJtaWRkbGUiIGZhbWlseT0i5b6u6L2v6ZuF6buRIiBzaXplPSIxM3B4IiB3ZWlnaHQ9IjQwMCIgZm9udC1zdHlsZT0iIiBvcGFjaXR5PSIxIiB5PSIxNy4zNzUiIHRyYW5zZm9ybT0icm90YXRlKDApIj48dHNwYW4gaWQ9IlN2Z2pzVHNwYW4xMzgwIiBkeT0iMTYiIHg9IjUwIj48dHNwYW4gaWQ9IlN2Z2pzVHNwYW4xMzgxIiBzdHlsZT0idGV4dC1kZWNvcmF0aW9uOjsiPuiOt+WPluWIsDwvdHNwYW4+PC90c3Bhbj48dHNwYW4gaWQ9IlN2Z2pzVHNwYW4xMzgyIiBkeT0iMTYiIHg9IjUwIj48dHNwYW4gaWQ9IlN2Z2pzVHNwYW4xMzgzIiBzdHlsZT0idGV4dC1kZWNvcmF0aW9uOjsiPkV4ZWN1dG9y77yfPC90c3Bhbj48L3RzcGFuPjwvdGV4dD48L2c+PC9nPjxnIGlkPSJTdmdqc0cxMzg0Ij48cGF0aCBpZD0iU3ZnanNQYXRoMTM4NSIgZD0iTTE0NTIgMTIxM0wxNDUyIDEyMzQuNUwxNDUyIDEyMzQuNUwxNDUyIDEyNTYiIHN0cm9rZT0iIzMyMzIzMiIgc3Ryb2tlLXdpZHRoPSIyIiBmaWxsPSJub25lIiBtYXJrZXItZW5kPSJ1cmwoI1N2Z2pzTWFya2VyMTM4NikiLz48cmVjdCBpZD0iU3ZnanNSZWN0MTM4OCIgd2lkdGg9IjEzIiBoZWlnaHQ9IjE2IiB4PSIxNDQ1LjUiIHk9IjEyMjYuNSIgZmlsbD0iI2ZmZmZmZiIvPjx0ZXh0IGlkPSJTdmdqc1RleHQxMzg5IiBmb250LWZhbWlseT0i5b6u6L2v6ZuF6buRIiB0ZXh0LWFuY2hvcj0ibWlkZGxlIiBmb250LXNpemU9IjEzcHgiIHdpZHRoPSIxM3B4IiBmaWxsPSIjMzIzMjMyIiBmb250LXdlaWdodD0iNDAwIiBhbGlnbj0idG9wIiBsaW5laGVpZ2h0PSIxNnB4IiBhbmNob3I9Im1pZGRsZSIgZmFtaWx5PSLlvq7ova/pm4Xpu5EiIHNpemU9IjEzcHgiIHdlaWdodD0iNDAwIiBmb250LXN0eWxlPSIiIG9wYWNpdHk9IjEiIHk9IjEyMjQuODc1IiB0cmFuc2Zvcm09InJvdGF0ZSgwKSI+PHRzcGFuIGlkPSJTdmdqc1RzcGFuMTM5MCIgZHk9IjE2IiB4PSIxNDUyIj48dHNwYW4gaWQ9IlN2Z2pzVHNwYW4xMzkxIiBzdHlsZT0idGV4dC1kZWNvcmF0aW9uOjsiPuaYrzwvdHNwYW4+PC90c3Bhbj48L3RleHQ+PC9nPjxnIGlkPSJTdmdqc0cxMzkyIiB0cmFuc2Zvcm09InRyYW5zbGF0ZSgxMzkyLDEyNTYpIj48cGF0aCBpZD0iU3ZnanNQYXRoMTM5MyIgZD0iTSAwIDBMIDEyMCAwTCAxMjAgNzBMIDAgNzBaIiBzdHJva2U9InJnYmEoNTAsNTAsNTAsMSkiIHN0cm9rZS13aWR0aD0iMiIgZmlsbC1vcGFjaXR5PSIxIiBmaWxsPSIjZmZmZmZmIi8+PGcgaWQ9IlN2Z2pzRzEzOTQiPjx0ZXh0IGlkPSJTdmdqc1RleHQxMzk1IiBmb250LWZhbWlseT0i5b6u6L2v6ZuF6buRIiB0ZXh0LWFuY2hvcj0ibWlkZGxlIiBmb250LXNpemU9IjEzcHgiIHdpZHRoPSIxMDBweCIgZmlsbD0iIzMyMzIzMiIgZm9udC13ZWlnaHQ9IjQwMCIgYWxpZ249Im1pZGRsZSIgbGluZWhlaWdodD0iMTI1JSIgYW5jaG9yPSJtaWRkbGUiIGZhbWlseT0i5b6u6L2v6ZuF6buRIiBzaXplPSIxM3B4IiB3ZWlnaHQ9IjQwMCIgZm9udC1zdHlsZT0iIiBvcGFjaXR5PSIxIiB5PSI5LjM3NSIgdHJhbnNmb3JtPSJyb3RhdGUoMCkiPjx0c3BhbiBpZD0iU3ZnanNUc3BhbjEzOTYiIGR5PSIxNiIgeD0iNjAiPjx0c3BhbiBpZD0iU3ZnanNUc3BhbjEzOTciIHN0eWxlPSJ0ZXh0LWRlY29yYXRpb246OyI+5bCGPC90c3Bhbj48L3RzcGFuPjx0c3BhbiBpZD0iU3ZnanNUc3BhbjEzOTgiIGR5PSIxNiIgeD0iNjAiPjx0c3BhbiBpZD0iU3ZnanNUc3BhbjEzOTkiIHN0eWxlPSJ0ZXh0LWRlY29yYXRpb246OyI+U29ja2V0UHJvY2Vzc288L3RzcGFuPjwvdHNwYW4+PHRzcGFuIGlkPSJTdmdqc1RzcGFuMTQwMCIgZHk9IjE2IiB4PSI2MCI+PHRzcGFuIGlkPSJTdmdqc1RzcGFuMTQwMSIgc3R5bGU9InRleHQtZGVjb3JhdGlvbjo7Ij5y5Yqg5YWlRXhlY3V0b3I8L3RzcGFuPjwvdHNwYW4+PC90ZXh0PjwvZz48L2c+PGcgaWQ9IlN2Z2pzRzE0MDIiPjxwYXRoIGlkPSJTdmdqc1BhdGgxNDAzIiBkPSJNMTQwMiAxMTc4TDEyNTcgMTE3OEwxMjU3IDEyNTYiIHN0cm9rZT0iIzMyMzIzMiIgc3Ryb2tlLXdpZHRoPSIyIiBmaWxsPSJub25lIiBtYXJrZXItZW5kPSJ1cmwoI1N2Z2pzTWFya2VyMTQwNCkiLz48cmVjdCBpZD0iU3ZnanNSZWN0MTQwNiIgd2lkdGg9IjEzIiBoZWlnaHQ9IjE2IiB4PSIxMjg0IiB5PSIxMTcwIiBmaWxsPSIjZmZmZmZmIi8+PHRleHQgaWQ9IlN2Z2pzVGV4dDE0MDciIGZvbnQtZmFtaWx5PSLlvq7ova/pm4Xpu5EiIHRleHQtYW5jaG9yPSJtaWRkbGUiIGZvbnQtc2l6ZT0iMTNweCIgd2lkdGg9IjEzcHgiIGZpbGw9IiMzMjMyMzIiIGZvbnQtd2VpZ2h0PSI0MDAiIGFsaWduPSJ0b3AiIGxpbmVoZWlnaHQ9IjE2cHgiIGFuY2hvcj0ibWlkZGxlIiBmYW1pbHk9IuW+rui9r+mbhem7kSIgc2l6ZT0iMTNweCIgd2VpZ2h0PSI0MDAiIGZvbnQtc3R5bGU9IiIgb3BhY2l0eT0iMSIgeT0iMTE2OC4zNzUiIHRyYW5zZm9ybT0icm90YXRlKDApIj48dHNwYW4gaWQ9IlN2Z2pzVHNwYW4xNDA4IiBkeT0iMTYiIHg9IjEyOTAuNSI+PHRzcGFuIGlkPSJTdmdqc1RzcGFuMTQwOSIgc3R5bGU9InRleHQtZGVjb3JhdGlvbjo7Ij7lkKY8L3RzcGFuPjwvdHNwYW4+PC90ZXh0PjwvZz48ZyBpZD0iU3ZnanNHMTQxMCIgdHJhbnNmb3JtPSJ0cmFuc2xhdGUoMTIwNywxMjU2KSI+PHBhdGggaWQ9IlN2Z2pzUGF0aDE0MTEiIGQ9Ik0gMCAwTCAxMDAgMEwgMTAwIDcwTCAwIDcwWiIgc3Ryb2tlPSJyZ2JhKDUwLDUwLDUwLDEpIiBzdHJva2Utd2lkdGg9IjIiIGZpbGwtb3BhY2l0eT0iMSIgZmlsbD0iI2ZmZmZmZiIvPjxnIGlkPSJTdmdqc0cxNDEyIj48dGV4dCBpZD0iU3ZnanNUZXh0MTQxMyIgZm9udC1mYW1pbHk9IuW+rui9r+mbhem7kSIgdGV4dC1hbmNob3I9Im1pZGRsZSIgZm9udC1zaXplPSIxM3B4IiB3aWR0aD0iODBweCIgZmlsbD0iIzMyMzIzMiIgZm9udC13ZWlnaHQ9IjQwMCIgYWxpZ249Im1pZGRsZSIgbGluZWhlaWdodD0iMTI1JSIgYW5jaG9yPSJtaWRkbGUiIGZhbWlseT0i5b6u6L2v6ZuF6buRIiBzaXplPSIxM3B4IiB3ZWlnaHQ9IjQwMCIgZm9udC1zdHlsZT0iIiBvcGFjaXR5PSIxIiB5PSIxNy4zNzUiIHRyYW5zZm9ybT0icm90YXRlKDApIj48dHNwYW4gaWQ9IlN2Z2pzVHNwYW4xNDE0IiBkeT0iMTYiIHg9IjUwIj48dHNwYW4gaWQ9IlN2Z2pzVHNwYW4xNDE1IiBzdHlsZT0idGV4dC1kZWNvcmF0aW9uOjsiPuebtOaOpei/kOihjHJ1bjwvdHNwYW4+PC90c3Bhbj48dHNwYW4gaWQ9IlN2Z2pzVHNwYW4xNDE2IiBkeT0iMTYiIHg9IjUwIj48dHNwYW4gaWQ9IlN2Z2pzVHNwYW4xNDE3IiBzdHlsZT0idGV4dC1kZWNvcmF0aW9uOjsiPuaWueazlTwvdHNwYW4+PC90c3Bhbj48L3RleHQ+PC9nPjwvZz48ZyBpZD0iU3ZnanNHMTQxOCI+PHBhdGggaWQ9IlN2Z2pzUGF0aDE0MTkiIGQ9Ik0xMjU3IDEzMjZMMTI1NyAxMzU2TDExNDMgMTM1NkwxMTQzIDM0NEwxMzI5IDM0NEwxMzI5IDM2NiIgc3Ryb2tlPSIjMzIzMjMyIiBzdHJva2Utd2lkdGg9IjIiIGZpbGw9Im5vbmUiIG1hcmtlci1lbmQ9InVybCgjU3ZnanNNYXJrZXIxNDIwKSIvPjwvZz48ZyBpZD0iU3ZnanNHMTQyMiI+PHBhdGggaWQ9IlN2Z2pzUGF0aDE0MjMiIGQ9Ik0xNDUyIDEzMjZMMTQ1MiAxMzU2TDExNDMgMTM1NkwxMTQzIDM0NEwxMzI5IDM0NEwxMzI5IDM2NiIgc3Ryb2tlPSIjMzIzMjMyIiBzdHJva2Utd2lkdGg9IjIiIGZpbGw9Im5vbmUiIG1hcmtlci1lbmQ9InVybCgjU3ZnanNNYXJrZXIxNDI0KSIvPjwvZz48ZyBpZD0iU3ZnanNHMTQyNiIgdHJhbnNmb3JtPSJ0cmFuc2xhdGUoNDcxLjUsNzcpIj48cGF0aCBpZD0iU3ZnanNQYXRoMTQyNyIgZD0iTSAwIDBMIDEyMS41IDBMIDEzNy41IDE2TCAxMzcuNSA5M0wgMCA5M0wgMCAwWiIgc3Ryb2tlPSJub25lIiBmaWxsLW9wYWNpdHk9IjEiIGZpbGw9IiNmZmZmYWEiLz48cGF0aCBpZD0iU3ZnanNQYXRoMTQyOCIgZD0iTSAxMjEuNSAwTCAxMjEuNSAxNkwgMTM3LjUgMTZaIiBzdHJva2U9Im5vbmUiIGZpbGwtb3BhY2l0eT0iMSIgZmlsbD0iI2NkY2RjZCIvPjxwYXRoIGlkPSJTdmdqc1BhdGgxNDI5IiBkPSJNIDAgMEwgMTIxLjUgMEwgMTM3LjUgMTZMIDEzNy41IDkzTCAwIDkzTCAwIDBaIiBzdHJva2U9Im5vbmUiIGZpbGw9Im5vbmUiLz48ZyBpZD0iU3ZnanNHMTQzMCI+PHRleHQgaWQ9IlN2Z2pzVGV4dDE0MzEiIGZvbnQtZmFtaWx5PSLlvq7ova/pm4Xpu5EiIHRleHQtYW5jaG9yPSJzdGFydCIgZm9udC1zaXplPSIxM3B4IiB3aWR0aD0iMTE4cHgiIGZpbGw9IiMzMjMyMzIiIGZvbnQtd2VpZ2h0PSI0MDAiIGFsaWduPSJtaWRkbGUiIGxpbmVoZWlnaHQ9IjEyNSUiIGFuY2hvcj0ic3RhcnQiIGZhbWlseT0i5b6u6L2v6ZuF6buRIiBzaXplPSIxM3B4IiB3ZWlnaHQ9IjQwMCIgZm9udC1zdHlsZT0iIiBvcGFjaXR5PSIxIiB5PSIxMi44NzUiIHRyYW5zZm9ybT0icm90YXRlKDApIj48dHNwYW4gaWQ9IlN2Z2pzVHNwYW4xNDMyIiBkeT0iMTYiIHg9IjEwIj48dHNwYW4gaWQ9IlN2Z2pzVHNwYW4xNDMzIiBzdHlsZT0idGV4dC1kZWNvcmF0aW9uOjsiPk1heENvbm5lY3Rpb25z5LyaPC90c3Bhbj48L3RzcGFuPjx0c3BhbiBpZD0iU3ZnanNUc3BhbjE0MzQiIGR5PSIxNiIgeD0iMTAiPjx0c3BhbiBpZD0iU3ZnanNUc3BhbjE0MzUiIHN0eWxlPSJ0ZXh0LWRlY29yYXRpb246OyI+6KKr6K6+572u5oiQTGltaXRMYXRjaDwvdHNwYW4+PC90c3Bhbj48dHNwYW4gaWQ9IlN2Z2pzVHNwYW4xNDM2IiBkeT0iMTYiIHg9IjEwIj48dHNwYW4gaWQ9IlN2Z2pzVHNwYW4xNDM3IiBzdHlsZT0idGV4dC1kZWNvcmF0aW9uOjsiPueahOS4iumZkO+8jOavj+iOt+WPluS4gOS4qjwvdHNwYW4+PC90c3Bhbj48dHNwYW4gaWQ9IlN2Z2pzVHNwYW4xNDM4IiBkeT0iMTYiIHg9IjEwIj48dHNwYW4gaWQ9IlN2Z2pzVHNwYW4xNDM5IiBzdHlsZT0idGV4dC1kZWNvcmF0aW9uOjsiPkxpbWl0TGF0Y2jkvJrliqDkuIDjgII8L3RzcGFuPjwvdHNwYW4+PC90ZXh0PjwvZz48L2c+PGcgaWQ9IlN2Z2pzRzE0NDAiIHRyYW5zZm9ybT0idHJhbnNsYXRlKDE1MDksMTEyNSkiPjxwYXRoIGlkPSJTdmdqc1BhdGgxNDQxIiBkPSJNIDAgMEwgNzYgMEwgOTIgMTZMIDkyIDEwNkwgMCAxMDZMIDAgMFoiIHN0cm9rZT0ibm9uZSIgZmlsbC1vcGFjaXR5PSIxIiBmaWxsPSIjZmZmZmFhIi8+PHBhdGggaWQ9IlN2Z2pzUGF0aDE0NDIiIGQ9Ik0gNzYgMEwgNzYgMTZMIDkyIDE2WiIgc3Ryb2tlPSJub25lIiBmaWxsLW9wYWNpdHk9IjEiIGZpbGw9IiNjZGNkY2QiLz48cGF0aCBpZD0iU3ZnanNQYXRoMTQ0MyIgZD0iTSAwIDBMIDc2IDBMIDkyIDE2TCA5MiAxMDZMIDAgMTA2TCAwIDBaIiBzdHJva2U9Im5vbmUiIGZpbGw9Im5vbmUiLz48ZyBpZD0iU3ZnanNHMTQ0NCI+PHRleHQgaWQ9IlN2Z2pzVGV4dDE0NDUiIGZvbnQtZmFtaWx5PSLlvq7ova/pm4Xpu5EiIHRleHQtYW5jaG9yPSJzdGFydCIgZm9udC1zaXplPSIxM3B4IiB3aWR0aD0iNzJweCIgZmlsbD0iIzMyMzIzMiIgZm9udC13ZWlnaHQ9IjQwMCIgYWxpZ249Im1pZGRsZSIgbGluZWhlaWdodD0iMTI1JSIgYW5jaG9yPSJzdGFydCIgZmFtaWx5PSLlvq7ova/pm4Xpu5EiIHNpemU9IjEzcHgiIHdlaWdodD0iNDAwIiBmb250LXN0eWxlPSIiIG9wYWNpdHk9IjEiIHk9IjI3LjM3NSIgdHJhbnNmb3JtPSJyb3RhdGUoMCkiPjx0c3BhbiBpZD0iU3ZnanNUc3BhbjE0NDYiIGR5PSIxNiIgeD0iMTAiPjx0c3BhbiBpZD0iU3ZnanNUc3BhbjE0NDciIHN0eWxlPSJ0ZXh0LWRlY29yYXRpb246OyI+TWF4VGhyZWFkPC90c3Bhbj48L3RzcGFuPjx0c3BhbiBpZD0iU3ZnanNUc3BhbjE0NDgiIGR5PSIxNiIgeD0iMTAiPjx0c3BhbiBpZD0iU3ZnanNUc3BhbjE0NDkiIHN0eWxlPSJ0ZXh0LWRlY29yYXRpb246OyI+5Lya6KKr6K6+572u5ZyoPC90c3Bhbj48L3RzcGFuPjx0c3BhbiBpZD0iU3ZnanNUc3BhbjE0NTAiIGR5PSIxNiIgeD0iMTAiPjx0c3BhbiBpZD0iU3ZnanNUc3BhbjE0NTEiIHN0eWxlPSJ0ZXh0LWRlY29yYXRpb246OyI+RXhlY3V0b3LkuK08L3RzcGFuPjwvdHNwYW4+PC90ZXh0PjwvZz48L2c+PGcgaWQ9IlN2Z2pzRzE0NTIiIHRyYW5zZm9ybT0idHJhbnNsYXRlKDI1LDQxOSkiPjxwYXRoIGlkPSJTdmdqc1BhdGgxNDUzIiBkPSJNIDAgMEwgMTI0IDBMIDEyNCA4NUwgMCA4NVoiIHN0cm9rZT0icmdiYSg1MCw1MCw1MCwxKSIgc3Ryb2tlLXdpZHRoPSIyIiBmaWxsLW9wYWNpdHk9IjEiIGZpbGw9IiNmZmZmZmYiLz48ZyBpZD0iU3ZnanNHMTQ1NCI+PHRleHQgaWQ9IlN2Z2pzVGV4dDE0NTUiIGZvbnQtZmFtaWx5PSLlvq7ova/pm4Xpu5EiIHRleHQtYW5jaG9yPSJtaWRkbGUiIGZvbnQtc2l6ZT0iMTNweCIgd2lkdGg9IjEwNHB4IiBmaWxsPSIjMDAwMDAwIiBmb250LXdlaWdodD0iNDAwIiBhbGlnbj0ibWlkZGxlIiBsaW5laGVpZ2h0PSIxMjUlIiBhbmNob3I9Im1pZGRsZSIgZmFtaWx5PSLlvq7ova/pm4Xpu5EiIHNpemU9IjEzcHgiIHdlaWdodD0iNDAwIiBmb250LXN0eWxlPSIiIG9wYWNpdHk9IjEiIHk9IjMyLjg3NSIgdHJhbnNmb3JtPSJyb3RhdGUoMCkiPjx0c3BhbiBpZD0iU3ZnanNUc3BhbjE0NTYiIGR5PSIxNiIgeD0iNjIiPjx0c3BhbiBpZD0iU3ZnanNUc3BhbjE0NTciIHN0eWxlPSJ0ZXh0LWRlY29yYXRpb246OyI+U29ja2V0UHJvY2Vzc29yPC90c3Bhbj48L3RzcGFuPjwvdGV4dD48L2c+PC9nPjxnIGlkPSJTdmdqc0cxNDU4Ij48cGF0aCBpZD0iU3ZnanNQYXRoMTQ1OSIgZD0iTTE0OSA0NjEuNUwyMTQuNSA0NjEuNUwyMTQuNSA0NjEuNUwyODAgNDYxLjUiIHN0cm9rZT0iIzMyMzIzMiIgc3Ryb2tlLXdpZHRoPSIyIiBmaWxsPSJub25lIiBtYXJrZXItZW5kPSJ1cmwoI1N2Z2pzTWFya2VyMTQ2MCkiLz48cmVjdCBpZD0iU3ZnanNSZWN0MTQ2MiIgd2lkdGg9Ijc5IiBoZWlnaHQ9IjE2IiB4PSIxNzUiIHk9IjQ1My41IiBmaWxsPSIjZmZmZmZmIi8+PHRleHQgaWQ9IlN2Z2pzVGV4dDE0NjMiIGZvbnQtZmFtaWx5PSLlvq7ova/pm4Xpu5EiIHRleHQtYW5jaG9yPSJtaWRkbGUiIGZvbnQtc2l6ZT0iMTNweCIgd2lkdGg9Ijc5cHgiIGZpbGw9IiMzMjMyMzIiIGZvbnQtd2VpZ2h0PSI0MDAiIGFsaWduPSJ0b3AiIGxpbmVoZWlnaHQ9IjE2cHgiIGFuY2hvcj0ibWlkZGxlIiBmYW1pbHk9IuW+rui9r+mbhem7kSIgc2l6ZT0iMTNweCIgd2VpZ2h0PSI0MDAiIGZvbnQtc3R5bGU9IiIgb3BhY2l0eT0iMSIgeT0iNDUxLjg3NSIgdHJhbnNmb3JtPSJyb3RhdGUoMCkiPjx0c3BhbiBpZD0iU3ZnanNUc3BhbjE0NjQiIGR5PSIxNiIgeD0iMjE0LjUiPjx0c3BhbiBpZD0iU3ZnanNUc3BhbjE0NjUiIHN0eWxlPSJ0ZXh0LWRlY29yYXRpb246OyI+Z2V0SGFuZGxlcigpPC90c3Bhbj48L3RzcGFuPjwvdGV4dD48L2c+PGcgaWQ9IlN2Z2pzRzE0NjYiIHRyYW5zZm9ybT0idHJhbnNsYXRlKDI4MCw0MjIuNzUpIj48cGF0aCBpZD0iU3ZnanNQYXRoMTQ2NyIgZD0iTSAwIDBMIDE0MSAwTCAxNDEgNzcuNUwgMCA3Ny41WiIgc3Ryb2tlPSJyZ2JhKDUwLDUwLDUwLDEpIiBzdHJva2Utd2lkdGg9IjIiIGZpbGwtb3BhY2l0eT0iMSIgZmlsbD0iI2ZmZmZmZiIvPjxnIGlkPSJTdmdqc0cxNDY4Ij48dGV4dCBpZD0iU3ZnanNUZXh0MTQ2OSIgZm9udC1mYW1pbHk9IuW+rui9r+mbhem7kSIgdGV4dC1hbmNob3I9Im1pZGRsZSIgZm9udC1zaXplPSIxM3B4IiB3aWR0aD0iMTIxcHgiIGZpbGw9IiMzMjMyMzIiIGZvbnQtd2VpZ2h0PSI0MDAiIGFsaWduPSJtaWRkbGUiIGxpbmVoZWlnaHQ9IjEyNSUiIGFuY2hvcj0ibWlkZGxlIiBmYW1pbHk9IuW+rui9r+mbhem7kSIgc2l6ZT0iMTNweCIgd2VpZ2h0PSI0MDAiIGZvbnQtc3R5bGU9IiIgb3BhY2l0eT0iMSIgeT0iMjkuMTI1IiB0cmFuc2Zvcm09InJvdGF0ZSgwKSI+PHRzcGFuIGlkPSJTdmdqc1RzcGFuMTQ3MCIgZHk9IjE2IiB4PSI3MC41Ij48dHNwYW4gaWQ9IlN2Z2pzVHNwYW4xNDcxIiBzdHlsZT0idGV4dC1kZWNvcmF0aW9uOjsiPkNvbm5lY3Rpb25IYW5kbGVyPC90c3Bhbj48L3RzcGFuPjwvdGV4dD48L2c+PC9nPjxnIGlkPSJTdmdqc0cxNDcyIj48cGF0aCBpZD0iU3ZnanNQYXRoMTQ3MyIgZD0iTTQyMSA0NjEuNUw0OTAgNDYxLjVMNDkwIDQ2MS41TDU1OSA0NjEuNSIgc3Ryb2tlPSIjMzIzMjMyIiBzdHJva2Utd2lkdGg9IjIiIGZpbGw9Im5vbmUiIG1hcmtlci1lbmQ9InVybCgjU3ZnanNNYXJrZXIxNDc0KSIvPjxyZWN0IGlkPSJTdmdqc1JlY3QxNDc2IiB3aWR0aD0iOTAiIGhlaWdodD0iMTYiIHg9IjQ0NSIgeT0iNDUzLjUiIGZpbGw9IiNmZmZmZmYiLz48dGV4dCBpZD0iU3ZnanNUZXh0MTQ3NyIgZm9udC1mYW1pbHk9IuW+rui9r+mbhem7kSIgdGV4dC1hbmNob3I9Im1pZGRsZSIgZm9udC1zaXplPSIxM3B4IiB3aWR0aD0iOTBweCIgZmlsbD0iIzMyMzIzMiIgZm9udC13ZWlnaHQ9IjQwMCIgYWxpZ249InRvcCIgbGluZWhlaWdodD0iMTZweCIgYW5jaG9yPSJtaWRkbGUiIGZhbWlseT0i5b6u6L2v6ZuF6buRIiBzaXplPSIxM3B4IiB3ZWlnaHQ9IjQwMCIgZm9udC1zdHlsZT0iIiBvcGFjaXR5PSIxIiB5PSI0NTEuODc1IiB0cmFuc2Zvcm09InJvdGF0ZSgwKSI+PHRzcGFuIGlkPSJTdmdqc1RzcGFuMTQ3OCIgZHk9IjE2IiB4PSI0OTAiPjx0c3BhbiBpZD0iU3ZnanNUc3BhbjE0NzkiIHN0eWxlPSJ0ZXh0LWRlY29yYXRpb246OyI+Z2V0UHJvY2Vzc29yKCk8L3RzcGFuPjwvdHNwYW4+PC90ZXh0PjwvZz48ZyBpZD0iU3ZnanNHMTQ4MCIgdHJhbnNmb3JtPSJ0cmFuc2xhdGUoNTU5LDQyMC44NzUpIj48cGF0aCBpZD0iU3ZnanNQYXRoMTQ4MSIgZD0iTSAwIDBMIDE5NiAwTCAxOTYgODEuMjVMIDAgODEuMjVaIiBzdHJva2U9InJnYmEoNTAsNTAsNTAsMSkiIHN0cm9rZS13aWR0aD0iMiIgZmlsbC1vcGFjaXR5PSIxIiBmaWxsPSIjZmZmZmZmIi8+PGcgaWQ9IlN2Z2pzRzE0ODIiPjx0ZXh0IGlkPSJTdmdqc1RleHQxNDgzIiBmb250LWZhbWlseT0i5b6u6L2v6ZuF6buRIiB0ZXh0LWFuY2hvcj0ic3RhcnQiIGZvbnQtc2l6ZT0iMTNweCIgd2lkdGg9IjE3NnB4IiBmaWxsPSIjMzIzMjMyIiBmb250LXdlaWdodD0iNDAwIiBhbGlnbj0ibWlkZGxlIiBsaW5laGVpZ2h0PSIxMjUlIiBhbmNob3I9InN0YXJ0IiBmYW1pbHk9IuW+rui9r+mbhem7kSIgc2l6ZT0iMTNweCIgd2VpZ2h0PSI0MDAiIGZvbnQtc3R5bGU9IiIgb3BhY2l0eT0iMSIgeT0iMzEiIHRyYW5zZm9ybT0icm90YXRlKDApIj48dHNwYW4gaWQ9IlN2Z2pzVHNwYW4xNDg0IiBkeT0iMTYiIHg9IjEwIj48dHNwYW4gaWQ9IlN2Z2pzVHNwYW4xNDg1IiBzdHlsZT0idGV4dC1kZWNvcmF0aW9uOjsiPlByb2Nlc3NvcihIdHRwMTFQcm9jZXNzb3IpPC90c3Bhbj48L3RzcGFuPjwvdGV4dD48L2c+PC9nPjxnIGlkPSJTdmdqc0cxNDg2Ij48cGF0aCBpZD0iU3ZnanNQYXRoMTQ4NyIgZD0iTTc1NSA0NjEuNUw3ODkgNDYxLjVMNzg5IDQ2MS41TDgyMyA0NjEuNSIgc3Ryb2tlPSIjMzIzMjMyIiBzdHJva2Utd2lkdGg9IjIiIGZpbGw9Im5vbmUiIG1hcmtlci1lbmQ9InVybCgjU3ZnanNNYXJrZXIxNDg4KSIvPjwvZz48ZyBpZD0iU3ZnanNHMTQ5MCIgdHJhbnNmb3JtPSJ0cmFuc2xhdGUoODIzLDQyNi41KSI+PHBhdGggaWQ9IlN2Z2pzUGF0aDE0OTEiIGQ9Ik0gMCAwTCAxMDAgMEwgMTAwIDcwTCAwIDcwWiIgc3Ryb2tlPSJyZ2JhKDUwLDUwLDUwLDEpIiBzdHJva2Utd2lkdGg9IjIiIGZpbGwtb3BhY2l0eT0iMSIgZmlsbD0iI2ZmZmZmZiIvPjxnIGlkPSJTdmdqc0cxNDkyIj48dGV4dCBpZD0iU3ZnanNUZXh0MTQ5MyIgZm9udC1mYW1pbHk9IuW+rui9r+mbhem7kSIgdGV4dC1hbmNob3I9Im1pZGRsZSIgZm9udC1zaXplPSIxM3B4IiB3aWR0aD0iODBweCIgZmlsbD0iIzMyMzIzMiIgZm9udC13ZWlnaHQ9IjQwMCIgYWxpZ249Im1pZGRsZSIgbGluZWhlaWdodD0iMTI1JSIgYW5jaG9yPSJtaWRkbGUiIGZhbWlseT0i5b6u6L2v6ZuF6buRIiBzaXplPSIxM3B4IiB3ZWlnaHQ9IjQwMCIgZm9udC1zdHlsZT0iIiBvcGFjaXR5PSIxIiB5PSIyNS4zNzUiIHRyYW5zZm9ybT0icm90YXRlKDApIj48dHNwYW4gaWQ9IlN2Z2pzVHNwYW4xNDk0IiBkeT0iMTYiIHg9IjUwIj48dHNwYW4gaWQ9IlN2Z2pzVHNwYW4xNDk1IiBzdHlsZT0idGV4dC1kZWNvcmF0aW9uOjsiPuWkhOeQhuivt+axgjwvdHNwYW4+PC90c3Bhbj48L3RleHQ+PC9nPjwvZz48L3N2Zz4=;" vertex="1" parent="1">
          <mxGeometry width="520" height="448" as="geometry" />
        </mxCell>
      </root>
    </mxGraphModel>
  </diagram>
</mxfile>
